<?xml version="1.0" encoding="utf-8"?>
<svg xmlns="http://www.w3.org/2000/svg" xmlns:xlink="http://www.w3.org/1999/xlink" width="600" height="400" viewBox="0 0 2400 1600">
<defs>
  <clipPath id="clip150">
    <rect x="0" y="0" width="2400" height="1600"/>
  </clipPath>
</defs>
<path clip-path="url(#clip150)" d="M0 1600 L2400 1600 L2400 0 L0 0  Z" fill="#ffffff" fill-rule="evenodd" fill-opacity="1"/>
<defs>
  <clipPath id="clip151">
    <rect x="480" y="0" width="1681" height="1600"/>
  </clipPath>
</defs>
<path clip-path="url(#clip150)" d="M156.598 1486.45 L2352.76 1486.45 L2352.76 47.2441 L156.598 47.2441  Z" fill="#ffffff" fill-rule="evenodd" fill-opacity="1"/>
<defs>
  <clipPath id="clip152">
    <rect x="156" y="47" width="2197" height="1440"/>
  </clipPath>
</defs>
<polyline clip-path="url(#clip152)" style="stroke:#000000; stroke-linecap:round; stroke-linejoin:round; stroke-width:2; stroke-opacity:0.1; fill:none" points="218.754,1486.45 218.754,47.2441 "/>
<polyline clip-path="url(#clip152)" style="stroke:#000000; stroke-linecap:round; stroke-linejoin:round; stroke-width:2; stroke-opacity:0.1; fill:none" points="909.369,1486.45 909.369,47.2441 "/>
<polyline clip-path="url(#clip152)" style="stroke:#000000; stroke-linecap:round; stroke-linejoin:round; stroke-width:2; stroke-opacity:0.1; fill:none" points="1599.98,1486.45 1599.98,47.2441 "/>
<polyline clip-path="url(#clip152)" style="stroke:#000000; stroke-linecap:round; stroke-linejoin:round; stroke-width:2; stroke-opacity:0.1; fill:none" points="2290.6,1486.45 2290.6,47.2441 "/>
<polyline clip-path="url(#clip152)" style="stroke:#000000; stroke-linecap:round; stroke-linejoin:round; stroke-width:2; stroke-opacity:0.1; fill:none" points="156.598,1445.72 2352.76,1445.72 "/>
<polyline clip-path="url(#clip152)" style="stroke:#000000; stroke-linecap:round; stroke-linejoin:round; stroke-width:2; stroke-opacity:0.1; fill:none" points="156.598,1158.78 2352.76,1158.78 "/>
<polyline clip-path="url(#clip152)" style="stroke:#000000; stroke-linecap:round; stroke-linejoin:round; stroke-width:2; stroke-opacity:0.1; fill:none" points="156.598,871.85 2352.76,871.85 "/>
<polyline clip-path="url(#clip152)" style="stroke:#000000; stroke-linecap:round; stroke-linejoin:round; stroke-width:2; stroke-opacity:0.1; fill:none" points="156.598,584.917 2352.76,584.917 "/>
<polyline clip-path="url(#clip152)" style="stroke:#000000; stroke-linecap:round; stroke-linejoin:round; stroke-width:2; stroke-opacity:0.1; fill:none" points="156.598,297.984 2352.76,297.984 "/>
<polyline clip-path="url(#clip150)" style="stroke:#000000; stroke-linecap:round; stroke-linejoin:round; stroke-width:4; stroke-opacity:1; fill:none" points="156.598,1486.45 2352.76,1486.45 "/>
<polyline clip-path="url(#clip150)" style="stroke:#000000; stroke-linecap:round; stroke-linejoin:round; stroke-width:4; stroke-opacity:1; fill:none" points="218.754,1486.45 218.754,1467.55 "/>
<polyline clip-path="url(#clip150)" style="stroke:#000000; stroke-linecap:round; stroke-linejoin:round; stroke-width:4; stroke-opacity:1; fill:none" points="909.369,1486.45 909.369,1467.55 "/>
<polyline clip-path="url(#clip150)" style="stroke:#000000; stroke-linecap:round; stroke-linejoin:round; stroke-width:4; stroke-opacity:1; fill:none" points="1599.98,1486.45 1599.98,1467.55 "/>
<polyline clip-path="url(#clip150)" style="stroke:#000000; stroke-linecap:round; stroke-linejoin:round; stroke-width:4; stroke-opacity:1; fill:none" points="2290.6,1486.45 2290.6,1467.55 "/>
<path clip-path="url(#clip150)" d="M218.754 1517.37 Q215.143 1517.37 213.314 1520.93 Q211.508 1524.47 211.508 1531.6 Q211.508 1538.71 213.314 1542.27 Q215.143 1545.82 218.754 1545.82 Q222.388 1545.82 224.193 1542.27 Q226.022 1538.71 226.022 1531.6 Q226.022 1524.47 224.193 1520.93 Q222.388 1517.37 218.754 1517.37 M218.754 1513.66 Q224.564 1513.66 227.619 1518.27 Q230.698 1522.85 230.698 1531.6 Q230.698 1540.33 227.619 1544.94 Q224.564 1549.52 218.754 1549.52 Q212.943 1549.52 209.865 1544.94 Q206.809 1540.33 206.809 1531.6 Q206.809 1522.85 209.865 1518.27 Q212.943 1513.66 218.754 1513.66 Z" fill="#000000" fill-rule="nonzero" fill-opacity="1" /><path clip-path="url(#clip150)" d="M899.647 1514.29 L918.003 1514.29 L918.003 1518.22 L903.929 1518.22 L903.929 1526.7 Q904.948 1526.35 905.967 1526.19 Q906.985 1526 908.004 1526 Q913.791 1526 917.17 1529.17 Q920.55 1532.34 920.55 1537.76 Q920.55 1543.34 917.078 1546.44 Q913.605 1549.52 907.286 1549.52 Q905.11 1549.52 902.842 1549.15 Q900.596 1548.78 898.189 1548.04 L898.189 1543.34 Q900.272 1544.47 902.494 1545.03 Q904.717 1545.58 907.193 1545.58 Q911.198 1545.58 913.536 1543.48 Q915.874 1541.37 915.874 1537.76 Q915.874 1534.15 913.536 1532.04 Q911.198 1529.94 907.193 1529.94 Q905.318 1529.94 903.443 1530.35 Q901.592 1530.77 899.647 1531.65 L899.647 1514.29 Z" fill="#000000" fill-rule="nonzero" fill-opacity="1" /><path clip-path="url(#clip150)" d="M1574.67 1544.91 L1582.31 1544.91 L1582.31 1518.55 L1574 1520.21 L1574 1515.95 L1582.27 1514.29 L1586.94 1514.29 L1586.94 1544.91 L1594.58 1544.91 L1594.58 1548.85 L1574.67 1548.85 L1574.67 1544.91 Z" fill="#000000" fill-rule="nonzero" fill-opacity="1" /><path clip-path="url(#clip150)" d="M1614.02 1517.37 Q1610.41 1517.37 1608.58 1520.93 Q1606.78 1524.47 1606.78 1531.6 Q1606.78 1538.71 1608.58 1542.27 Q1610.41 1545.82 1614.02 1545.82 Q1617.66 1545.82 1619.46 1542.27 Q1621.29 1538.71 1621.29 1531.6 Q1621.29 1524.47 1619.46 1520.93 Q1617.66 1517.37 1614.02 1517.37 M1614.02 1513.66 Q1619.83 1513.66 1622.89 1518.27 Q1625.97 1522.85 1625.97 1531.6 Q1625.97 1540.33 1622.89 1544.94 Q1619.83 1549.52 1614.02 1549.52 Q1608.21 1549.52 1605.14 1544.94 Q1602.08 1540.33 1602.08 1531.6 Q1602.08 1522.85 1605.14 1518.27 Q1608.21 1513.66 1614.02 1513.66 Z" fill="#000000" fill-rule="nonzero" fill-opacity="1" /><path clip-path="url(#clip150)" d="M2265.79 1544.91 L2273.42 1544.91 L2273.42 1518.55 L2265.11 1520.21 L2265.11 1515.95 L2273.38 1514.29 L2278.05 1514.29 L2278.05 1544.91 L2285.69 1544.91 L2285.69 1548.85 L2265.79 1548.85 L2265.79 1544.91 Z" fill="#000000" fill-rule="nonzero" fill-opacity="1" /><path clip-path="url(#clip150)" d="M2295.18 1514.29 L2313.54 1514.29 L2313.54 1518.22 L2299.47 1518.22 L2299.47 1526.7 Q2300.48 1526.35 2301.5 1526.19 Q2302.52 1526 2303.54 1526 Q2309.33 1526 2312.71 1529.17 Q2316.09 1532.34 2316.09 1537.76 Q2316.09 1543.34 2312.61 1546.44 Q2309.14 1549.52 2302.82 1549.52 Q2300.65 1549.52 2298.38 1549.15 Q2296.13 1548.78 2293.73 1548.04 L2293.73 1543.34 Q2295.81 1544.47 2298.03 1545.03 Q2300.25 1545.58 2302.73 1545.58 Q2306.73 1545.58 2309.07 1543.48 Q2311.41 1541.37 2311.41 1537.76 Q2311.41 1534.15 2309.07 1532.04 Q2306.73 1529.94 2302.73 1529.94 Q2300.86 1529.94 2298.98 1530.35 Q2297.13 1530.77 2295.18 1531.65 L2295.18 1514.29 Z" fill="#000000" fill-rule="nonzero" fill-opacity="1" /><polyline clip-path="url(#clip150)" style="stroke:#000000; stroke-linecap:round; stroke-linejoin:round; stroke-width:4; stroke-opacity:1; fill:none" points="156.598,1486.45 156.598,47.2441 "/>
<polyline clip-path="url(#clip150)" style="stroke:#000000; stroke-linecap:round; stroke-linejoin:round; stroke-width:4; stroke-opacity:1; fill:none" points="156.598,1445.72 175.496,1445.72 "/>
<polyline clip-path="url(#clip150)" style="stroke:#000000; stroke-linecap:round; stroke-linejoin:round; stroke-width:4; stroke-opacity:1; fill:none" points="156.598,1158.78 175.496,1158.78 "/>
<polyline clip-path="url(#clip150)" style="stroke:#000000; stroke-linecap:round; stroke-linejoin:round; stroke-width:4; stroke-opacity:1; fill:none" points="156.598,871.85 175.496,871.85 "/>
<polyline clip-path="url(#clip150)" style="stroke:#000000; stroke-linecap:round; stroke-linejoin:round; stroke-width:4; stroke-opacity:1; fill:none" points="156.598,584.917 175.496,584.917 "/>
<polyline clip-path="url(#clip150)" style="stroke:#000000; stroke-linecap:round; stroke-linejoin:round; stroke-width:4; stroke-opacity:1; fill:none" points="156.598,297.984 175.496,297.984 "/>
<path clip-path="url(#clip150)" d="M63.4226 1431.51 Q59.8115 1431.51 57.9828 1435.08 Q56.1773 1438.62 56.1773 1445.75 Q56.1773 1452.86 57.9828 1456.42 Q59.8115 1459.96 63.4226 1459.96 Q67.0569 1459.96 68.8624 1456.42 Q70.6911 1452.86 70.6911 1445.75 Q70.6911 1438.62 68.8624 1435.08 Q67.0569 1431.51 63.4226 1431.51 M63.4226 1427.81 Q69.2328 1427.81 72.2883 1432.42 Q75.367 1437 75.367 1445.75 Q75.367 1454.48 72.2883 1459.08 Q69.2328 1463.67 63.4226 1463.67 Q57.6125 1463.67 54.5338 1459.08 Q51.4782 1454.48 51.4782 1445.75 Q51.4782 1437 54.5338 1432.42 Q57.6125 1427.81 63.4226 1427.81 Z" fill="#000000" fill-rule="nonzero" fill-opacity="1" /><path clip-path="url(#clip150)" d="M83.5845 1457.12 L88.4688 1457.12 L88.4688 1463 L83.5845 1463 L83.5845 1457.12 Z" fill="#000000" fill-rule="nonzero" fill-opacity="1" /><path clip-path="url(#clip150)" d="M108.654 1431.51 Q105.043 1431.51 103.214 1435.08 Q101.409 1438.62 101.409 1445.75 Q101.409 1452.86 103.214 1456.42 Q105.043 1459.96 108.654 1459.96 Q112.288 1459.96 114.094 1456.42 Q115.922 1452.86 115.922 1445.75 Q115.922 1438.62 114.094 1435.08 Q112.288 1431.51 108.654 1431.51 M108.654 1427.81 Q114.464 1427.81 117.52 1432.42 Q120.598 1437 120.598 1445.75 Q120.598 1454.48 117.52 1459.08 Q114.464 1463.67 108.654 1463.67 Q102.844 1463.67 99.765 1459.08 Q96.7095 1454.48 96.7095 1445.75 Q96.7095 1437 99.765 1432.42 Q102.844 1427.81 108.654 1427.81 Z" fill="#000000" fill-rule="nonzero" fill-opacity="1" /><path clip-path="url(#clip150)" d="M65.0198 1144.58 Q61.4087 1144.58 59.58 1148.15 Q57.7745 1151.69 57.7745 1158.82 Q57.7745 1165.92 59.58 1169.49 Q61.4087 1173.03 65.0198 1173.03 Q68.6541 1173.03 70.4596 1169.49 Q72.2883 1165.92 72.2883 1158.82 Q72.2883 1151.69 70.4596 1148.15 Q68.6541 1144.58 65.0198 1144.58 M65.0198 1140.88 Q70.83 1140.88 73.8855 1145.48 Q76.9642 1150.07 76.9642 1158.82 Q76.9642 1167.54 73.8855 1172.15 Q70.83 1176.73 65.0198 1176.73 Q59.2097 1176.73 56.131 1172.15 Q53.0754 1167.54 53.0754 1158.82 Q53.0754 1150.07 56.131 1145.48 Q59.2097 1140.88 65.0198 1140.88 Z" fill="#000000" fill-rule="nonzero" fill-opacity="1" /><path clip-path="url(#clip150)" d="M85.1818 1170.18 L90.066 1170.18 L90.066 1176.06 L85.1818 1176.06 L85.1818 1170.18 Z" fill="#000000" fill-rule="nonzero" fill-opacity="1" /><path clip-path="url(#clip150)" d="M104.279 1172.13 L120.598 1172.13 L120.598 1176.06 L98.6539 1176.06 L98.6539 1172.13 Q101.316 1169.37 105.899 1164.74 Q110.506 1160.09 111.686 1158.75 Q113.932 1156.22 114.811 1154.49 Q115.714 1152.73 115.714 1151.04 Q115.714 1148.29 113.77 1146.55 Q111.848 1144.81 108.746 1144.81 Q106.547 1144.81 104.094 1145.58 Q101.663 1146.34 98.8854 1147.89 L98.8854 1143.17 Q101.709 1142.04 104.163 1141.46 Q106.617 1140.88 108.654 1140.88 Q114.024 1140.88 117.219 1143.56 Q120.413 1146.25 120.413 1150.74 Q120.413 1152.87 119.603 1154.79 Q118.816 1156.69 116.709 1159.28 Q116.131 1159.95 113.029 1163.17 Q109.927 1166.36 104.279 1172.13 Z" fill="#000000" fill-rule="nonzero" fill-opacity="1" /><path clip-path="url(#clip150)" d="M62.9365 857.649 Q59.3254 857.649 57.4967 861.213 Q55.6912 864.755 55.6912 871.885 Q55.6912 878.991 57.4967 882.556 Q59.3254 886.097 62.9365 886.097 Q66.5707 886.097 68.3763 882.556 Q70.205 878.991 70.205 871.885 Q70.205 864.755 68.3763 861.213 Q66.5707 857.649 62.9365 857.649 M62.9365 853.945 Q68.7467 853.945 71.8022 858.551 Q74.8809 863.135 74.8809 871.885 Q74.8809 880.611 71.8022 885.218 Q68.7467 889.801 62.9365 889.801 Q57.1264 889.801 54.0477 885.218 Q50.9921 880.611 50.9921 871.885 Q50.9921 863.135 54.0477 858.551 Q57.1264 853.945 62.9365 853.945 Z" fill="#000000" fill-rule="nonzero" fill-opacity="1" /><path clip-path="url(#clip150)" d="M83.0984 883.25 L87.9827 883.25 L87.9827 889.13 L83.0984 889.13 L83.0984 883.25 Z" fill="#000000" fill-rule="nonzero" fill-opacity="1" /><path clip-path="url(#clip150)" d="M111.015 858.644 L99.2095 877.093 L111.015 877.093 L111.015 858.644 M109.788 854.57 L115.668 854.57 L115.668 877.093 L120.598 877.093 L120.598 880.982 L115.668 880.982 L115.668 889.13 L111.015 889.13 L111.015 880.982 L95.4132 880.982 L95.4132 876.468 L109.788 854.57 Z" fill="#000000" fill-rule="nonzero" fill-opacity="1" /><path clip-path="url(#clip150)" d="M63.2606 570.716 Q59.6495 570.716 57.8208 574.28 Q56.0152 577.822 56.0152 584.952 Q56.0152 592.058 57.8208 595.623 Q59.6495 599.165 63.2606 599.165 Q66.8948 599.165 68.7004 595.623 Q70.5291 592.058 70.5291 584.952 Q70.5291 577.822 68.7004 574.28 Q66.8948 570.716 63.2606 570.716 M63.2606 567.012 Q69.0707 567.012 72.1263 571.618 Q75.205 576.202 75.205 584.952 Q75.205 593.678 72.1263 598.285 Q69.0707 602.868 63.2606 602.868 Q57.4504 602.868 54.3717 598.285 Q51.3162 593.678 51.3162 584.952 Q51.3162 576.202 54.3717 571.618 Q57.4504 567.012 63.2606 567.012 Z" fill="#000000" fill-rule="nonzero" fill-opacity="1" /><path clip-path="url(#clip150)" d="M83.4225 596.317 L88.3067 596.317 L88.3067 602.197 L83.4225 602.197 L83.4225 596.317 Z" fill="#000000" fill-rule="nonzero" fill-opacity="1" /><path clip-path="url(#clip150)" d="M109.071 583.054 Q105.922 583.054 104.071 585.206 Q102.242 587.359 102.242 591.109 Q102.242 594.836 104.071 597.012 Q105.922 599.165 109.071 599.165 Q112.219 599.165 114.047 597.012 Q115.899 594.836 115.899 591.109 Q115.899 587.359 114.047 585.206 Q112.219 583.054 109.071 583.054 M118.353 568.401 L118.353 572.66 Q116.594 571.827 114.788 571.387 Q113.006 570.947 111.246 570.947 Q106.617 570.947 104.163 574.072 Q101.733 577.197 101.385 583.517 Q102.751 581.503 104.811 580.438 Q106.871 579.35 109.348 579.35 Q114.557 579.35 117.566 582.521 Q120.598 585.669 120.598 591.109 Q120.598 596.433 117.45 599.651 Q114.302 602.868 109.071 602.868 Q103.075 602.868 99.9039 598.285 Q96.7326 593.678 96.7326 584.952 Q96.7326 576.757 100.621 571.896 Q104.51 567.012 111.061 567.012 Q112.82 567.012 114.603 567.359 Q116.408 567.706 118.353 568.401 Z" fill="#000000" fill-rule="nonzero" fill-opacity="1" /><path clip-path="url(#clip150)" d="M63.5152 283.783 Q59.9041 283.783 58.0754 287.348 Q56.2699 290.889 56.2699 298.019 Q56.2699 305.125 58.0754 308.69 Q59.9041 312.232 63.5152 312.232 Q67.1494 312.232 68.955 308.69 Q70.7837 305.125 70.7837 298.019 Q70.7837 290.889 68.955 287.348 Q67.1494 283.783 63.5152 283.783 M63.5152 280.079 Q69.3254 280.079 72.3809 284.686 Q75.4596 289.269 75.4596 298.019 Q75.4596 306.746 72.3809 311.352 Q69.3254 315.935 63.5152 315.935 Q57.7051 315.935 54.6264 311.352 Q51.5708 306.746 51.5708 298.019 Q51.5708 289.269 54.6264 284.686 Q57.7051 280.079 63.5152 280.079 Z" fill="#000000" fill-rule="nonzero" fill-opacity="1" /><path clip-path="url(#clip150)" d="M83.6771 309.384 L88.5614 309.384 L88.5614 315.264 L83.6771 315.264 L83.6771 309.384 Z" fill="#000000" fill-rule="nonzero" fill-opacity="1" /><path clip-path="url(#clip150)" d="M108.746 298.852 Q105.413 298.852 103.492 300.635 Q101.594 302.417 101.594 305.542 Q101.594 308.667 103.492 310.449 Q105.413 312.232 108.746 312.232 Q112.08 312.232 114.001 310.449 Q115.922 308.644 115.922 305.542 Q115.922 302.417 114.001 300.635 Q112.103 298.852 108.746 298.852 M104.071 296.861 Q101.061 296.121 99.3715 294.06 Q97.7048 292 97.7048 289.037 Q97.7048 284.894 100.645 282.486 Q103.608 280.079 108.746 280.079 Q113.908 280.079 116.848 282.486 Q119.788 284.894 119.788 289.037 Q119.788 292 118.098 294.06 Q116.432 296.121 113.445 296.861 Q116.825 297.648 118.7 299.94 Q120.598 302.232 120.598 305.542 Q120.598 310.565 117.52 313.25 Q114.464 315.935 108.746 315.935 Q103.029 315.935 99.9502 313.25 Q96.8947 310.565 96.8947 305.542 Q96.8947 302.232 98.7928 299.94 Q100.691 297.648 104.071 296.861 M102.358 289.477 Q102.358 292.162 104.024 293.667 Q105.714 295.172 108.746 295.172 Q111.756 295.172 113.445 293.667 Q115.158 292.162 115.158 289.477 Q115.158 286.792 113.445 285.287 Q111.756 283.783 108.746 283.783 Q105.714 283.783 104.024 285.287 Q102.358 286.792 102.358 289.477 Z" fill="#000000" fill-rule="nonzero" fill-opacity="1" /><polyline clip-path="url(#clip152)" style="stroke:#009af9; stroke-linecap:round; stroke-linejoin:round; stroke-width:4; stroke-opacity:1; fill:none" points="218.754,1445.72 220.135,1445.72 221.516,1445.72 222.897,1445.72 224.279,1445.72 225.66,1445.72 227.041,1445.72 228.422,1445.72 229.803,1445.72 231.185,1445.72 232.566,1445.72 233.947,1445.72 235.328,1445.71 236.71,1445.71 238.091,1445.71 239.472,1445.71 240.853,1445.71 242.235,1445.71 243.616,1445.7 244.997,1445.7 246.378,1445.69 247.759,1445.68 249.141,1445.67 250.522,1445.66 251.903,1445.65 253.284,1445.63 254.666,1445.61 256.047,1445.59 257.428,1445.56 258.809,1445.53 260.191,1445.49 261.572,1445.45 262.953,1445.41 264.334,1445.35 265.716,1445.3 267.097,1445.23 268.478,1445.16 269.859,1445.08 271.24,1445 272.622,1444.9 274.003,1444.8 275.384,1444.69 276.765,1444.57 278.147,1444.44 279.528,1444.3 280.909,1444.15 282.29,1443.99 283.672,1443.82 285.053,1443.64 286.434,1443.44 287.815,1443.24 289.196,1443.02 290.578,1442.79 291.959,1442.54 293.34,1442.29 294.721,1442.02 296.103,1441.73 297.484,1441.43 298.865,1441.12 300.246,1440.79 301.628,1440.45 303.009,1440.09 304.39,1439.72 305.771,1439.33 307.152,1438.93 308.534,1438.51 309.915,1438.08 311.296,1437.63 312.677,1437.16 314.059,1436.67 315.44,1436.17 316.821,1435.66 318.202,1435.12 319.584,1434.57 320.965,1434 322.346,1433.42 323.727,1432.81 325.108,1432.19 326.49,1431.56 327.871,1430.9 329.252,1430.23 330.633,1429.54 332.015,1428.83 333.396,1428.11 334.777,1427.36 336.158,1426.6 337.54,1425.82 338.921,1425.03 340.302,1424.21 341.683,1423.38 343.064,1422.53 344.446,1421.67 345.827,1420.78 347.208,1419.88 348.589,1418.96 349.971,1418.02 351.352,1417.07 352.733,1416.1 354.114,1415.11 355.496,1414.1 356.877,1413.08 358.258,1412.04 359.639,1410.98 361.02,1409.9 362.402,1408.81 363.783,1407.7 365.164,1406.57 366.545,1405.43 367.927,1404.27 369.308,1403.09 370.689,1401.9 372.07,1400.69 373.452,1399.47 374.833,1398.23 376.214,1396.97 377.595,1395.7 378.976,1394.41 380.358,1393.1 381.739,1391.78 383.12,1390.44 384.501,1389.09 385.883,1387.73 387.264,1386.35 388.645,1384.95 390.026,1383.54 391.408,1382.11 392.789,1380.67 394.17,1379.22 395.551,1377.75 396.932,1376.26 398.314,1374.77 399.695,1373.26 401.076,1371.73 402.457,1370.19 403.839,1368.64 405.22,1367.07 406.601,1365.5 407.982,1363.9 409.364,1362.3 410.745,1360.68 412.126,1359.05 413.507,1357.41 414.888,1355.76 416.27,1354.09 417.651,1352.41 419.032,1350.72 420.413,1349.02 421.795,1347.3 423.176,1345.58 424.557,1343.84 425.938,1342.09 427.32,1340.33 428.701,1338.56 430.082,1336.78 431.463,1334.99 432.844,1333.18 434.226,1331.37 435.607,1329.55 436.988,1327.72 438.369,1325.87 439.751,1324.02 441.132,1322.16 442.513,1320.29 443.894,1318.4 445.276,1316.51 446.657,1314.61 448.038,1312.71 449.419,1310.79 450.8,1308.86 452.182,1306.93 453.563,1304.99 454.944,1303.03 456.325,1301.07 457.707,1299.11 459.088,1297.13 460.469,1295.15 461.85,1293.16 463.232,1291.16 464.613,1289.15 465.994,1287.14 467.375,1285.12 468.756,1283.09 470.138,1281.06 471.519,1279.02 472.9,1276.97 474.281,1274.92 475.663,1272.86 477.044,1270.79 478.425,1268.72 479.806,1266.64 481.188,1264.56 482.569,1262.47 483.95,1260.37 485.331,1258.27 486.713,1256.16 488.094,1254.05 489.475,1251.94 490.856,1249.81 492.237,1247.69 493.619,1245.55 495,1243.42 496.381,1241.28 497.762,1239.13 499.144,1236.98 500.525,1234.82 501.906,1232.67 503.287,1230.5 504.669,1228.34 506.05,1226.16 507.431,1223.99 508.812,1221.81 510.193,1219.63 511.575,1217.44 512.956,1215.25 514.337,1213.06 515.718,1210.87 517.1,1208.67 518.481,1206.46 519.862,1204.26 521.243,1202.05 522.625,1199.84 524.006,1197.63 525.387,1195.41 526.768,1193.2 528.149,1190.97 529.531,1188.75 530.912,1186.53 532.293,1184.3 533.674,1182.07 535.056,1179.84 536.437,1177.61 537.818,1175.37 539.199,1173.13 540.581,1170.9 541.962,1168.66 543.343,1166.42 544.724,1164.17 546.105,1161.93 547.487,1159.68 548.868,1157.44 550.249,1155.19 551.63,1152.94 553.012,1150.69 554.393,1148.44 555.774,1146.19 557.155,1143.94 558.537,1141.68 559.918,1139.43 561.299,1137.18 562.68,1134.92 564.061,1132.67 565.443,1130.41 566.824,1128.16 568.205,1125.9 569.586,1123.65 570.968,1121.39 572.349,1119.14 573.73,1116.88 575.111,1114.62 576.493,1112.37 577.874,1110.11 579.255,1107.86 580.636,1105.6 582.017,1103.35 583.399,1101.1 584.78,1098.84 586.161,1096.59 587.542,1094.34 588.924,1092.09 590.305,1089.83 591.686,1087.58 593.067,1085.34 594.449,1083.09 595.83,1080.84 597.211,1078.59 598.592,1076.35 599.973,1074.1 601.355,1071.86 602.736,1069.62 604.117,1067.38 605.498,1065.14 606.88,1062.9 608.261,1060.66 609.642,1058.43 611.023,1056.19 612.405,1053.96 613.786,1051.73 615.167,1049.5 616.548,1047.27 617.929,1045.05 619.311,1042.82 620.692,1040.6 622.073,1038.38 623.454,1036.16 624.836,1033.94 626.217,1031.73 627.598,1029.51 628.979,1027.3 630.361,1025.09 631.742,1022.89 633.123,1020.68 634.504,1018.48 635.885,1016.28 637.267,1014.08 638.648,1011.88 640.029,1009.69 641.41,1007.49 642.792,1005.3 644.173,1003.12 645.554,1000.93 646.935,998.747 648.317,996.567 649.698,994.389 651.079,992.213 652.46,990.04 653.841,987.87 655.223,985.702 656.604,983.537 657.985,981.374 659.366,979.214 660.748,977.057 662.129,974.902 663.51,972.75 664.891,970.601 666.273,968.454 667.654,966.311 669.035,964.17 670.416,962.032 671.797,959.897 673.179,957.765 674.56,955.636 675.941,953.51 677.322,951.386 678.704,949.266 680.085,947.149 681.466,945.034 682.847,942.923 684.229,940.815 685.61,938.71 686.991,936.608 688.372,934.509 689.753,932.413 691.135,930.321 692.516,928.231 693.897,926.145 695.278,924.062 696.66,921.982 698.041,919.906 699.422,917.832 700.803,915.762 702.185,913.696 703.566,911.632 704.947,909.572 706.328,907.515 707.709,905.462 709.091,903.412 710.472,901.365 711.853,899.322 713.234,897.282 714.616,895.246 715.997,893.213 717.378,891.183 718.759,889.157 720.141,887.134 721.522,885.115 722.903,883.1 724.284,881.087 725.666,879.079 727.047,877.074 728.428,875.072 729.809,873.074 731.19,871.08 732.572,869.089 733.953,867.101 735.334,865.118 736.715,863.137 738.097,861.161 739.478,859.188 740.859,857.219 742.24,855.253 743.622,853.291 745.003,851.332 746.384,849.378 747.765,847.427 749.146,845.479 750.528,843.535 751.909,841.595 753.29,839.659 754.671,837.726 756.053,835.797 757.434,833.872 758.815,831.951 760.196,830.033 761.578,828.119 762.959,826.208 764.34,824.302 765.721,822.399 767.102,820.499 768.484,818.604 769.865,816.712 771.246,814.824 772.627,812.94 774.009,811.06 775.39,809.183 776.771,807.31 778.152,805.441 779.534,803.576 780.915,801.715 782.296,799.857 783.677,798.003 785.058,796.153 786.44,794.307 787.821,792.464 789.202,790.625 790.583,788.79 791.965,786.959 793.346,785.132 794.727,783.308 796.108,781.489 797.49,779.673 798.871,777.861 800.252,776.052 801.633,774.248 803.014,772.447 804.396,770.65 805.777,768.857 807.158,767.068 808.539,765.283 809.921,763.501 811.302,761.723 812.683,759.95 814.064,758.179 815.446,756.413 816.827,754.651 818.208,752.892 819.589,751.137 820.97,749.386 822.352,747.639 823.733,745.896 825.114,744.156 826.495,742.42 827.877,740.688 829.258,738.96 830.639,737.236 832.02,735.515 833.402,733.798 834.783,732.086 836.164,730.376 837.545,728.671 838.926,726.97 840.308,725.272 841.689,723.578 843.07,721.888 844.451,720.201 845.833,718.519 847.214,716.84 848.595,715.165 849.976,713.494 851.358,711.827 852.739,710.163 854.12,708.503 855.501,706.847 856.882,705.195 858.264,703.546 859.645,701.901 861.026,700.26 862.407,698.623 863.789,696.989 865.17,695.36 866.551,693.734 867.932,692.111 869.314,690.493 870.695,688.878 872.076,687.267 873.457,685.659 874.838,684.056 876.22,682.456 877.601,680.86 878.982,679.267 880.363,677.678 881.745,676.093 883.126,674.512 884.507,672.934 885.888,671.36 887.27,669.79 888.651,668.224 890.032,666.661 891.413,665.101 892.794,663.546 894.176,661.994 895.557,660.446 896.938,658.901 898.319,657.36 899.701,655.823 901.082,654.289 902.463,652.759 903.844,651.233 905.226,649.71 906.607,648.191 907.988,646.675 909.369,645.163 910.75,643.655 912.132,642.15 913.513,640.649 914.894,639.152 916.275,637.658 917.657,636.168 919.038,634.681 920.419,633.198 921.8,631.718 923.182,630.242 924.563,628.769 925.944,627.3 927.325,625.835 928.706,624.373 930.088,622.915 931.469,621.46 932.85,620.009 934.231,618.561 935.613,617.117 936.994,615.676 938.375,614.239 939.756,612.805 941.138,611.375 942.519,609.948 943.9,608.524 945.281,607.105 946.663,605.688 948.044,604.275 949.425,602.866 950.806,601.46 952.187,600.057 953.569,598.658 954.95,597.262 956.331,595.87 957.712,594.481 959.094,593.095 960.475,591.713 961.856,590.335 963.237,588.959 964.619,587.587 966,586.219 967.381,584.854 968.762,583.492 970.143,582.134 971.525,580.778 972.906,579.427 974.287,578.078 975.668,576.733 977.05,575.392 978.431,574.053 979.812,572.718 981.193,571.386 982.575,570.058 983.956,568.733 985.337,567.411 986.718,566.092 988.099,564.777 989.481,563.465 990.862,562.156 992.243,560.85 993.624,559.548 995.006,558.249 996.387,556.953 997.768,555.66 999.149,554.371 1000.53,553.085 1001.91,551.802 1003.29,550.522 1004.67,549.246 1006.06,547.972 1007.44,546.702 1008.82,545.435 1010.2,544.171 1011.58,542.911 1012.96,541.653 1014.34,540.399 1015.72,539.148 1017.11,537.9 1018.49,536.655 1019.87,535.413 1021.25,534.174 1022.63,532.939 1024.01,531.706 1025.39,530.477 1026.77,529.251 1028.16,528.027 1029.54,526.807 1030.92,525.59 1032.3,524.376 1033.68,523.165 1035.06,521.958 1036.44,520.753 1037.82,519.551 1039.2,518.352 1040.59,517.157 1041.97,515.964 1043.35,514.774 1044.73,513.588 1046.11,512.404 1047.49,511.223 1048.87,510.045 1050.25,508.871 1051.64,507.699 1053.02,506.53 1054.4,505.364 1055.78,504.201 1057.16,503.041 1058.54,501.884 1059.92,500.73 1061.3,499.579 1062.69,498.431 1064.07,497.286 1065.45,496.143 1066.83,495.004 1068.21,493.867 1069.59,492.733 1070.97,491.603 1072.35,490.475 1073.74,489.349 1075.12,488.227 1076.5,487.108 1077.88,485.991 1079.26,484.877 1080.64,483.767 1082.02,482.658 1083.4,481.553 1084.79,480.451 1086.17,479.351 1087.55,478.254 1088.93,477.16 1090.31,476.069 1091.69,474.98 1093.07,473.895 1094.45,472.812 1095.84,471.731 1097.22,470.654 1098.6,469.579 1099.98,468.507 1101.36,467.438 1102.74,466.372 1104.12,465.308 1105.5,464.247 1106.89,463.188 1108.27,462.133 1109.65,461.08 1111.03,460.029 1112.41,458.982 1113.79,457.937 1115.17,456.895 1116.55,455.855 1117.94,454.818 1119.32,453.784 1120.7,452.752 1122.08,451.723 1123.46,450.696 1124.84,449.673 1126.22,448.651 1127.6,447.633 1128.99,446.617 1130.37,445.604 1131.75,444.593 1133.13,443.585 1134.51,442.579 1135.89,441.576 1137.27,440.575 1138.65,439.577 1140.03,438.582 1141.42,437.589 1142.8,436.599 1144.18,435.611 1145.56,434.626 1146.94,433.643 1148.32,432.663 1149.7,431.685 1151.08,430.71 1152.47,429.737 1153.85,428.767 1155.23,427.799 1156.61,426.834 1157.99,425.871 1159.37,424.911 1160.75,423.953 1162.13,422.997 1163.52,422.044 1164.9,421.094 1166.28,420.146 1167.66,419.2 1169.04,418.257 1170.42,417.316 1171.8,416.377 1173.18,415.441 1174.57,414.508 1175.95,413.576 1177.33,412.647 1178.71,411.721 1180.09,410.797 1181.47,409.875 1182.85,408.955 1184.23,408.038 1185.62,407.124 1187,406.211 1188.38,405.301 1189.76,404.393 1191.14,403.488 1192.52,402.585 1193.9,401.684 1195.28,400.786 1196.67,399.889 1198.05,398.995 1199.43,398.104 1200.81,397.215 1202.19,396.327 1203.57,395.443 1204.95,394.56 1206.33,393.68 1207.72,392.802 1209.1,391.926 1210.48,391.053 1211.86,390.181 1213.24,389.312 1214.62,388.445 1216,387.581 1217.38,386.718 1218.77,385.858 1220.15,385 1221.53,384.144 1222.91,383.29 1224.29,382.439 1225.67,381.59 1227.05,380.743 1228.43,379.898 1229.81,379.055 1231.2,378.214 1232.58,377.376 1233.96,376.539 1235.34,375.705 1236.72,374.873 1238.1,374.043 1239.48,373.215 1240.86,372.389 1242.25,371.566 1243.63,370.744 1245.01,369.925 1246.39,369.108 1247.77,368.292 1249.15,367.479 1250.53,366.668 1251.91,365.859 1253.3,365.052 1254.68,364.247 1256.06,363.444 1257.44,362.643 1258.82,361.845 1260.2,361.048 1261.58,360.253 1262.96,359.461 1264.35,358.67 1265.73,357.881 1267.11,357.095 1268.49,356.31 1269.87,355.527 1271.25,354.747 1272.63,353.968 1274.01,353.192 1275.4,352.417 1276.78,351.644 1278.16,350.873 1279.54,350.105 1280.92,349.338 1282.3,348.573 1283.68,347.81 1285.06,347.049 1286.45,346.29 1287.83,345.533 1289.21,344.778 1290.59,344.025 1291.97,343.273 1293.35,342.524 1294.73,341.776 1296.11,341.031 1297.5,340.287 1298.88,339.545 1300.26,338.805 1301.64,338.067 1303.02,337.331 1304.4,336.596 1305.78,335.864 1307.16,335.133 1308.55,334.405 1309.93,333.678 1311.31,332.953 1312.69,332.229 1314.07,331.508 1315.45,330.789 1316.83,330.071 1318.21,329.355 1319.59,328.641 1320.98,327.929 1322.36,327.218 1323.74,326.509 1325.12,325.802 1326.5,325.097 1327.88,324.394 1329.26,323.693 1330.64,322.993 1332.03,322.295 1333.41,321.599 1334.79,320.904 1336.17,320.212 1337.55,319.521 1338.93,318.831 1340.31,318.144 1341.69,317.458 1343.08,316.774 1344.46,316.092 1345.84,315.412 1347.22,314.733 1348.6,314.056 1349.98,313.38 1351.36,312.707 1352.74,312.035 1354.13,311.364 1355.51,310.696 1356.89,310.029 1358.27,309.364 1359.65,308.7 1361.03,308.038 1362.41,307.378 1363.79,306.72 1365.18,306.063 1366.56,305.408 1367.94,304.754 1369.32,304.102 1370.7,303.452 1372.08,302.804 1373.46,302.157 1374.84,301.511 1376.23,300.867 1377.61,300.225 1378.99,299.585 1380.37,298.946 1381.75,298.309 1383.13,297.673 1384.51,297.039 1385.89,296.407 1387.28,295.776 1388.66,295.146 1390.04,294.519 1391.42,293.893 1392.8,293.268 1394.18,292.645 1395.56,292.024 1396.94,291.404 1398.33,290.785 1399.71,290.169 1401.09,289.553 1402.47,288.94 1403.85,288.328 1405.23,287.717 1406.61,287.108 1407.99,286.5 1409.37,285.894 1410.76,285.29 1412.14,284.687 1413.52,284.086 1414.9,283.486 1416.28,282.887 1417.66,282.29 1419.04,281.695 1420.42,281.101 1421.81,280.508 1423.19,279.917 1424.57,279.328 1425.95,278.74 1427.33,278.153 1428.71,277.568 1430.09,276.984 1431.47,276.402 1432.86,275.821 1434.24,275.242 1435.62,274.664 1437,274.088 1438.38,273.513 1439.76,272.939 1441.14,272.367 1442.52,271.797 1443.91,271.227 1445.29,270.659 1446.67,270.093 1448.05,269.528 1449.43,268.964 1450.81,268.402 1452.19,267.841 1453.57,267.282 1454.96,266.724 1456.34,266.167 1457.72,265.612 1459.1,265.058 1460.48,264.506 1461.86,263.955 1463.24,263.405 1464.62,262.857 1466.01,262.31 1467.39,261.764 1468.77,261.22 1470.15,260.677 1471.53,260.135 1472.91,259.595 1474.29,259.056 1475.67,258.518 1477.06,257.982 1478.44,257.447 1479.82,256.914 1481.2,256.381 1482.58,255.85 1483.96,255.321 1485.34,254.792 1486.72,254.265 1488.11,253.74 1489.49,253.215 1490.87,252.692 1492.25,252.17 1493.63,251.65 1495.01,251.131 1496.39,250.613 1497.77,250.096 1499.15,249.581 1500.54,249.066 1501.92,248.554 1503.3,248.042 1504.68,247.532 1506.06,247.023 1507.44,246.515 1508.82,246.008 1510.2,245.503 1511.59,244.999 1512.97,244.496 1514.35,243.994 1515.73,243.494 1517.11,242.995 1518.49,242.497 1519.87,242 1521.25,241.505 1522.64,241.011 1524.02,240.518 1525.4,240.026 1526.78,239.535 1528.16,239.046 1529.54,238.558 1530.92,238.071 1532.3,237.585 1533.69,237.1 1535.07,236.617 1536.45,236.135 1537.83,235.654 1539.21,235.174 1540.59,234.695 1541.97,234.218 1543.35,233.741 1544.74,233.266 1546.12,232.792 1547.5,232.319 1548.88,231.848 1550.26,231.377 1551.64,230.908 1553.02,230.44 1554.4,229.972 1555.79,229.506 1557.17,229.042 1558.55,228.578 1559.93,228.115 1561.31,227.654 1562.69,227.194 1564.07,226.735 1565.45,226.277 1566.84,225.82 1568.22,225.364 1569.6,224.909 1570.98,224.456 1572.36,224.003 1573.74,223.552 1575.12,223.101 1576.5,222.652 1577.89,222.204 1579.27,221.757 1580.65,221.311 1582.03,220.866 1583.41,220.423 1584.79,219.98 1586.17,219.538 1587.55,219.098 1588.94,218.658 1590.32,218.22 1591.7,217.783 1593.08,217.347 1594.46,216.911 1595.84,216.477 1597.22,216.044 1598.6,215.612 1599.98,215.181 1601.37,214.751 1602.75,214.322 1604.13,213.894 1605.51,213.468 1606.89,213.042 1608.27,212.617 1609.65,212.193 1611.03,211.771 1612.42,211.349 1613.8,210.928 1615.18,210.509 1616.56,210.09 1617.94,209.672 1619.32,209.256 1620.7,208.84 1622.08,208.426 1623.47,208.012 1624.85,207.599 1626.23,207.188 1627.61,206.777 1628.99,206.367 1630.37,205.959 1631.75,205.551 1633.13,205.145 1634.52,204.739 1635.9,204.334 1637.28,203.93 1638.66,203.528 1640.04,203.126 1641.42,202.725 1642.8,202.325 1644.18,201.926 1645.57,201.528 1646.95,201.131 1648.33,200.735 1649.71,200.34 1651.09,199.946 1652.47,199.553 1653.85,199.161 1655.23,198.769 1656.62,198.379 1658,197.989 1659.38,197.601 1660.76,197.213 1662.14,196.827 1663.52,196.441 1664.9,196.056 1666.28,195.672 1667.67,195.289 1669.05,194.907 1670.43,194.526 1671.81,194.146 1673.19,193.767 1674.57,193.388 1675.95,193.011 1677.33,192.634 1678.72,192.258 1680.1,191.884 1681.48,191.51 1682.86,191.137 1684.24,190.765 1685.62,190.393 1687,190.023 1688.38,189.653 1689.76,189.285 1691.15,188.917 1692.53,188.55 1693.91,188.184 1695.29,187.819 1696.67,187.455 1698.05,187.092 1699.43,186.729 1700.81,186.367 1702.2,186.007 1703.58,185.647 1704.96,185.288 1706.34,184.93 1707.72,184.572 1709.1,184.216 1710.48,183.86 1711.86,183.505 1713.25,183.151 1714.63,182.798 1716.01,182.446 1717.39,182.094 1718.77,181.744 1720.15,181.394 1721.53,181.045 1722.91,180.697 1724.3,180.349 1725.68,180.003 1727.06,179.657 1728.44,179.312 1729.82,178.968 1731.2,178.625 1732.58,178.282 1733.96,177.941 1735.35,177.6 1736.73,177.26 1738.11,176.921 1739.49,176.582 1740.87,176.245 1742.25,175.908 1743.63,175.572 1745.01,175.236 1746.4,174.902 1747.78,174.568 1749.16,174.235 1750.54,173.903 1751.92,173.572 1753.3,173.241 1754.68,172.912 1756.06,172.583 1757.45,172.255 1758.83,171.927 1760.21,171.6 1761.59,171.274 1762.97,170.949 1764.35,170.625 1765.73,170.301 1767.11,169.978 1768.5,169.656 1769.88,169.335 1771.26,169.014 1772.64,168.695 1774.02,168.375 1775.4,168.057 1776.78,167.739 1778.16,167.423 1779.54,167.106 1780.93,166.791 1782.31,166.476 1783.69,166.162 1785.07,165.849 1786.45,165.537 1787.83,165.225 1789.21,164.914 1790.59,164.604 1791.98,164.294 1793.36,163.985 1794.74,163.677 1796.12,163.37 1797.5,163.063 1798.88,162.757 1800.26,162.452 1801.64,162.148 1803.03,161.844 1804.41,161.541 1805.79,161.238 1807.17,160.936 1808.55,160.635 1809.93,160.335 1811.31,160.036 1812.69,159.737 1814.08,159.438 1815.46,159.141 1816.84,158.844 1818.22,158.548 1819.6,158.252 1820.98,157.958 1822.36,157.663 1823.74,157.37 1825.13,157.077 1826.51,156.785 1827.89,156.494 1829.27,156.203 1830.65,155.913 1832.03,155.624 1833.41,155.335 1834.79,155.047 1836.18,154.76 1837.56,154.473 1838.94,154.187 1840.32,153.901 1841.7,153.617 1843.08,153.333 1844.46,153.049 1845.84,152.767 1847.23,152.484 1848.61,152.203 1849.99,151.922 1851.37,151.642 1852.75,151.362 1854.13,151.084 1855.51,150.805 1856.89,150.528 1858.28,150.251 1859.66,149.974 1861.04,149.699 1862.42,149.424 1863.8,149.149 1865.18,148.876 1866.56,148.602 1867.94,148.33 1869.32,148.058 1870.71,147.787 1872.09,147.516 1873.47,147.246 1874.85,146.977 1876.23,146.708 1877.61,146.44 1878.99,146.172 1880.37,145.905 1881.76,145.639 1883.14,145.373 1884.52,145.108 1885.9,144.843 1887.28,144.579 1888.66,144.316 1890.04,144.053 1891.42,143.791 1892.81,143.53 1894.19,143.269 1895.57,143.008 1896.95,142.749 1898.33,142.489 1899.71,142.231 1901.09,141.973 1902.47,141.716 1903.86,141.459 1905.24,141.203 1906.62,140.947 1908,140.692 1909.38,140.437 1910.76,140.183 1912.14,139.93 1913.52,139.677 1914.91,139.425 1916.29,139.174 1917.67,138.923 1919.05,138.672 1920.43,138.422 1921.81,138.173 1923.19,137.924 1924.57,137.676 1925.96,137.428 1927.34,137.181 1928.72,136.935 1930.1,136.689 1931.48,136.444 1932.86,136.199 1934.24,135.955 1935.62,135.711 1937.01,135.468 1938.39,135.225 1939.77,134.983 1941.15,134.741 1942.53,134.5 1943.91,134.26 1945.29,134.02 1946.67,133.781 1948.06,133.542 1949.44,133.304 1950.82,133.066 1952.2,132.829 1953.58,132.592 1954.96,132.356 1956.34,132.12 1957.72,131.885 1959.11,131.651 1960.49,131.417 1961.87,131.183 1963.25,130.95 1964.63,130.718 1966.01,130.486 1967.39,130.254 1968.77,130.024 1970.15,129.793 1971.54,129.563 1972.92,129.334 1974.3,129.105 1975.68,128.877 1977.06,128.649 1978.44,128.422 1979.82,128.195 1981.2,127.969 1982.59,127.743 1983.97,127.518 1985.35,127.293 1986.73,127.069 1988.11,126.845 1989.49,126.622 1990.87,126.399 1992.25,126.177 1993.64,125.955 1995.02,125.734 1996.4,125.513 1997.78,125.293 1999.16,125.073 2000.54,124.854 2001.92,124.635 2003.3,124.417 2004.69,124.199 2006.07,123.982 2007.45,123.765 2008.83,123.548 2010.21,123.332 2011.59,123.117 2012.97,122.902 2014.35,122.688 2015.74,122.474 2017.12,122.26 2018.5,122.047 2019.88,121.835 2021.26,121.623 2022.64,121.411 2024.02,121.2 2025.4,120.989 2026.79,120.779 2028.17,120.569 2029.55,120.36 2030.93,120.151 2032.31,119.943 2033.69,119.735 2035.07,119.527 2036.45,119.32 2037.84,119.114 2039.22,118.908 2040.6,118.702 2041.98,118.497 2043.36,118.293 2044.74,118.088 2046.12,117.885 2047.5,117.681 2048.89,117.478 2050.27,117.276 2051.65,117.074 2053.03,116.872 2054.41,116.671 2055.79,116.471 2057.17,116.27 2058.55,116.071 2059.93,115.871 2061.32,115.672 2062.7,115.474 2064.08,115.276 2065.46,115.078 2066.84,114.881 2068.22,114.684 2069.6,114.488 2070.98,114.292 2072.37,114.097 2073.75,113.902 2075.13,113.707 2076.51,113.513 2077.89,113.319 2079.27,113.126 2080.65,112.933 2082.03,112.741 2083.42,112.549 2084.8,112.357 2086.18,112.166 2087.56,111.975 2088.94,111.785 2090.32,111.595 2091.7,111.406 2093.08,111.216 2094.47,111.028 2095.85,110.839 2097.23,110.652 2098.61,110.464 2099.99,110.277 2101.37,110.09 2102.75,109.904 2104.13,109.718 2105.52,109.533 2106.9,109.348 2108.28,109.163 2109.66,108.979 2111.04,108.795 2112.42,108.612 2113.8,108.429 2115.18,108.246 2116.57,108.064 2117.95,107.882 2119.33,107.701 2120.71,107.52 2122.09,107.339 2123.47,107.159 2124.85,106.979 2126.23,106.8 2127.62,106.621 2129,106.442 2130.38,106.264 2131.76,106.086 2133.14,105.908 2134.52,105.731 2135.9,105.554 2137.28,105.378 2138.67,105.202 2140.05,105.026 2141.43,104.851 2142.81,104.676 2144.19,104.502 2145.57,104.328 2146.95,104.154 2148.33,103.981 2149.71,103.808 2151.1,103.635 2152.48,103.463 2153.86,103.291 2155.24,103.12 2156.62,102.949 2158,102.778 2159.38,102.608 2160.76,102.438 2162.15,102.268 2163.53,102.099 2164.91,101.93 2166.29,101.761 2167.67,101.593 2169.05,101.425 2170.43,101.258 2171.81,101.091 2173.2,100.924 2174.58,100.758 2175.96,100.591 2177.34,100.426 2178.72,100.261 2180.1,100.096 2181.48,99.931 2182.86,99.7667 2184.25,99.6028 2185.63,99.4393 2187.01,99.2761 2188.39,99.1133 2189.77,98.9508 2191.15,98.7886 2192.53,98.6268 2193.91,98.4654 2195.3,98.3043 2196.68,98.1435 2198.06,97.9831 2199.44,97.823 2200.82,97.6633 2202.2,97.5039 2203.58,97.3448 2204.96,97.1861 2206.35,97.0278 2207.73,96.8697 2209.11,96.712 2210.49,96.5547 2211.87,96.3976 2213.25,96.241 2214.63,96.0846 2216.01,95.9286 2217.4,95.7729 2218.78,95.6175 2220.16,95.4625 2221.54,95.3078 2222.92,95.1534 2224.3,94.9994 2225.68,94.8457 2227.06,94.6923 2228.45,94.5392 2229.83,94.3865 2231.21,94.2341 2232.59,94.082 2233.97,93.9302 2235.35,93.7788 2236.73,93.6276 2238.11,93.4768 2239.49,93.3264 2240.88,93.1762 2242.26,93.0263 2243.64,92.8768 2245.02,92.7276 2246.4,92.5787 2247.78,92.4301 2249.16,92.2818 2250.54,92.1339 2251.93,91.9863 2253.31,91.8389 2254.69,91.6919 2256.07,91.5452 2257.45,91.3988 2258.83,91.2527 2260.21,91.1069 2261.59,90.9615 2262.98,90.8163 2264.36,90.6714 2265.74,90.5269 2267.12,90.3826 2268.5,90.2387 2269.88,90.095 2271.26,89.9517 2272.64,89.8087 2274.03,89.6659 2275.41,89.5235 2276.79,89.3813 2278.17,89.2395 2279.55,89.098 2280.93,88.9567 2282.31,88.8158 2283.69,88.6751 2285.08,88.5348 2286.46,88.3947 2287.84,88.2549 2289.22,88.1155 2290.6,87.9763 "/>
<polyline clip-path="url(#clip152)" style="stroke:#e26f46; stroke-linecap:round; stroke-linejoin:round; stroke-width:4; stroke-opacity:1; fill:none" points="218.754,1445.72 220.135,1445.72 221.516,1445.72 222.897,1445.72 224.279,1445.72 225.66,1445.72 227.041,1445.72 228.422,1445.72 229.803,1445.72 231.185,1445.72 232.566,1445.72 233.947,1445.72 235.328,1445.72 236.71,1445.72 238.091,1445.72 239.472,1445.72 240.853,1445.72 242.235,1445.72 243.616,1445.72 244.997,1445.72 246.378,1445.72 247.759,1445.71 249.141,1445.71 250.522,1445.71 251.903,1445.71 253.284,1445.71 254.666,1445.71 256.047,1445.71 257.428,1445.71 258.809,1445.71 260.191,1445.71 261.572,1445.7 262.953,1445.7 264.334,1445.7 265.716,1445.69 267.097,1445.69 268.478,1445.68 269.859,1445.68 271.24,1445.67 272.622,1445.66 274.003,1445.65 275.384,1445.64 276.765,1445.63 278.147,1445.62 279.528,1445.61 280.909,1445.59 282.29,1445.58 283.672,1445.56 285.053,1445.54 286.434,1445.52 287.815,1445.49 289.196,1445.47 290.578,1445.44 291.959,1445.41 293.34,1445.38 294.721,1445.34 296.103,1445.3 297.484,1445.26 298.865,1445.22 300.246,1445.17 301.628,1445.12 303.009,1445.06 304.39,1445.01 305.771,1444.94 307.152,1444.88 308.534,1444.81 309.915,1444.73 311.296,1444.65 312.677,1444.57 314.059,1444.48 315.44,1444.39 316.821,1444.29 318.202,1444.19 319.584,1444.08 320.965,1443.97 322.346,1443.85 323.727,1443.72 325.108,1443.59 326.49,1443.45 327.871,1443.31 329.252,1443.15 330.633,1443 332.015,1442.83 333.396,1442.66 334.777,1442.48 336.158,1442.29 337.54,1442.1 338.921,1441.89 340.302,1441.68 341.683,1441.46 343.064,1441.23 344.446,1441 345.827,1440.75 347.208,1440.5 348.589,1440.24 349.971,1439.96 351.352,1439.68 352.733,1439.39 354.114,1439.09 355.496,1438.78 356.877,1438.46 358.258,1438.13 359.639,1437.78 361.02,1437.43 362.402,1437.07 363.783,1436.69 365.164,1436.31 366.545,1435.91 367.927,1435.5 369.308,1435.08 370.689,1434.65 372.07,1434.21 373.452,1433.75 374.833,1433.28 376.214,1432.8 377.595,1432.31 378.976,1431.8 380.358,1431.28 381.739,1430.75 383.12,1430.2 384.501,1429.64 385.883,1429.07 387.264,1428.48 388.645,1427.88 390.026,1427.27 391.408,1426.64 392.789,1426 394.17,1425.34 395.551,1424.67 396.932,1423.99 398.314,1423.29 399.695,1422.57 401.076,1421.84 402.457,1421.1 403.839,1420.34 405.22,1419.56 406.601,1418.77 407.982,1417.97 409.364,1417.15 410.745,1416.32 412.126,1415.47 413.507,1414.6 414.888,1413.72 416.27,1412.83 417.651,1411.91 419.032,1410.99 420.413,1410.05 421.795,1409.09 423.176,1408.12 424.557,1407.13 425.938,1406.12 427.32,1405.1 428.701,1404.07 430.082,1403.02 431.463,1401.95 432.844,1400.87 434.226,1399.78 435.607,1398.67 436.988,1397.54 438.369,1396.4 439.751,1395.24 441.132,1394.07 442.513,1392.88 443.894,1391.68 445.276,1390.46 446.657,1389.23 448.038,1387.99 449.419,1386.72 450.8,1385.45 452.182,1384.16 453.563,1382.85 454.944,1381.54 456.325,1380.2 457.707,1378.85 459.088,1377.49 460.469,1376.12 461.85,1374.73 463.232,1373.32 464.613,1371.91 465.994,1370.48 467.375,1369.03 468.756,1367.57 470.138,1366.1 471.519,1364.62 472.9,1363.12 474.281,1361.61 475.663,1360.09 477.044,1358.55 478.425,1357 479.806,1355.44 481.188,1353.87 482.569,1352.28 483.95,1350.68 485.331,1349.07 486.713,1347.45 488.094,1345.82 489.475,1344.17 490.856,1342.52 492.237,1340.85 493.619,1339.17 495,1337.48 496.381,1335.77 497.762,1334.06 499.144,1332.34 500.525,1330.6 501.906,1328.86 503.287,1327.1 504.669,1325.34 506.05,1323.56 507.431,1321.77 508.812,1319.98 510.193,1318.17 511.575,1316.36 512.956,1314.53 514.337,1312.7 515.718,1310.85 517.1,1309 518.481,1307.14 519.862,1305.27 521.243,1303.39 522.625,1301.5 524.006,1299.6 525.387,1297.7 526.768,1295.78 528.149,1293.86 529.531,1291.93 530.912,1290 532.293,1288.05 533.674,1286.1 535.056,1284.14 536.437,1282.17 537.818,1280.19 539.199,1278.21 540.581,1276.22 541.962,1274.23 543.343,1272.22 544.724,1270.21 546.105,1268.2 547.487,1266.17 548.868,1264.14 550.249,1262.11 551.63,1260.07 553.012,1258.02 554.393,1255.97 555.774,1253.91 557.155,1251.84 558.537,1249.77 559.918,1247.69 561.299,1245.61 562.68,1243.53 564.061,1241.43 565.443,1239.34 566.824,1237.24 568.205,1235.13 569.586,1233.02 570.968,1230.9 572.349,1228.78 573.73,1226.66 575.111,1224.53 576.493,1222.4 577.874,1220.26 579.255,1218.12 580.636,1215.97 582.017,1213.83 583.399,1211.67 584.78,1209.52 586.161,1207.36 587.542,1205.19 588.924,1203.03 590.305,1200.86 591.686,1198.69 593.067,1196.51 594.449,1194.33 595.83,1192.15 597.211,1189.97 598.592,1187.78 599.973,1185.59 601.355,1183.4 602.736,1181.21 604.117,1179.01 605.498,1176.81 606.88,1174.61 608.261,1172.41 609.642,1170.2 611.023,1167.99 612.405,1165.79 613.786,1163.58 615.167,1161.36 616.548,1159.15 617.929,1156.93 619.311,1154.72 620.692,1152.5 622.073,1150.28 623.454,1148.06 624.836,1145.84 626.217,1143.62 627.598,1141.39 628.979,1139.17 630.361,1136.94 631.742,1134.71 633.123,1132.49 634.504,1130.26 635.885,1128.03 637.267,1125.8 638.648,1123.57 640.029,1121.34 641.41,1119.11 642.792,1116.88 644.173,1114.65 645.554,1112.42 646.935,1110.19 648.317,1107.96 649.698,1105.73 651.079,1103.5 652.46,1101.27 653.841,1099.04 655.223,1096.81 656.604,1094.58 657.985,1092.35 659.366,1090.12 660.748,1087.9 662.129,1085.67 663.51,1083.44 664.891,1081.21 666.273,1078.99 667.654,1076.76 669.035,1074.54 670.416,1072.32 671.797,1070.09 673.179,1067.87 674.56,1065.65 675.941,1063.43 677.322,1061.22 678.704,1059 680.085,1056.78 681.466,1054.57 682.847,1052.36 684.229,1050.14 685.61,1047.93 686.991,1045.72 688.372,1043.52 689.753,1041.31 691.135,1039.11 692.516,1036.9 693.897,1034.7 695.278,1032.5 696.66,1030.3 698.041,1028.11 699.422,1025.91 700.803,1023.72 702.185,1021.53 703.566,1019.34 704.947,1017.16 706.328,1014.97 707.709,1012.79 709.091,1010.61 710.472,1008.43 711.853,1006.25 713.234,1004.08 714.616,1001.9 715.997,999.735 717.378,997.567 718.759,995.401 720.141,993.238 721.522,991.077 722.903,988.918 724.284,986.762 725.666,984.608 727.047,982.457 728.428,980.308 729.809,978.162 731.19,976.018 732.572,973.876 733.953,971.738 735.334,969.602 736.715,967.468 738.097,965.338 739.478,963.209 740.859,961.084 742.24,958.961 743.622,956.842 745.003,954.724 746.384,952.61 747.765,950.499 749.146,948.39 750.528,946.284 751.909,944.182 753.29,942.082 754.671,939.985 756.053,937.891 757.434,935.8 758.815,933.712 760.196,931.627 761.578,929.545 762.959,927.466 764.34,925.39 765.721,923.318 767.102,921.248 768.484,919.181 769.865,917.118 771.246,915.058 772.627,913.001 774.009,910.947 775.39,908.897 776.771,906.849 778.152,904.805 779.534,902.765 780.915,900.727 782.296,898.693 783.677,896.662 785.058,894.634 786.44,892.61 787.821,890.589 789.202,888.572 790.583,886.557 791.965,884.547 793.346,882.539 794.727,880.535 796.108,878.535 797.49,876.537 798.871,874.544 800.252,872.554 801.633,870.567 803.014,868.583 804.396,866.604 805.777,864.627 807.158,862.655 808.539,860.685 809.921,858.72 811.302,856.757 812.683,854.799 814.064,852.844 815.446,850.892 816.827,848.944 818.208,847 819.589,845.059 820.97,843.122 822.352,841.188 823.733,839.258 825.114,837.332 826.495,835.409 827.877,833.49 829.258,831.575 830.639,829.663 832.02,827.755 833.402,825.851 834.783,823.95 836.164,822.053 837.545,820.159 838.926,818.269 840.308,816.383 841.689,814.501 843.07,812.622 844.451,810.747 845.833,808.876 847.214,807.008 848.595,805.145 849.976,803.284 851.358,801.428 852.739,799.575 854.12,797.726 855.501,795.881 856.882,794.04 858.264,792.202 859.645,790.368 861.026,788.538 862.407,786.711 863.789,784.888 865.17,783.069 866.551,781.254 867.932,779.443 869.314,777.635 870.695,775.831 872.076,774.031 873.457,772.234 874.838,770.441 876.22,768.652 877.601,766.867 878.982,765.086 880.363,763.308 881.745,761.534 883.126,759.764 884.507,757.998 885.888,756.235 887.27,754.477 888.651,752.722 890.032,750.97 891.413,749.223 892.794,747.479 894.176,745.739 895.557,744.003 896.938,742.271 898.319,740.542 899.701,738.817 901.082,737.096 902.463,735.379 903.844,733.665 905.226,731.956 906.607,730.25 907.988,728.547 909.369,726.849 910.75,725.154 912.132,723.463 913.513,721.776 914.894,720.093 916.275,718.413 917.657,716.737 919.038,715.065 920.419,713.396 921.8,711.731 923.182,710.07 924.563,708.413 925.944,706.76 927.325,705.11 928.706,703.464 930.088,701.822 931.469,700.183 932.85,698.548 934.231,696.917 935.613,695.29 936.994,693.666 938.375,692.046 939.756,690.43 941.138,688.817 942.519,687.208 943.9,685.603 945.281,684.002 946.663,682.404 948.044,680.81 949.425,679.219 950.806,677.632 952.187,676.049 953.569,674.47 954.95,672.894 956.331,671.322 957.712,669.754 959.094,668.189 960.475,666.628 961.856,665.071 963.237,663.517 964.619,661.967 966,660.42 967.381,658.877 968.762,657.338 970.143,655.802 971.525,654.27 972.906,652.742 974.287,651.217 975.668,649.696 977.05,648.178 978.431,646.664 979.812,645.154 981.193,643.647 982.575,642.144 983.956,640.644 985.337,639.148 986.718,637.656 988.099,636.167 989.481,634.681 990.862,633.2 992.243,631.721 993.624,630.247 995.006,628.775 996.387,627.308 997.768,625.843 999.149,624.383 1000.53,622.926 1001.91,621.472 1003.29,620.022 1004.67,618.575 1006.06,617.132 1007.44,615.693 1008.82,614.256 1010.2,612.824 1011.58,611.394 1012.96,609.969 1014.34,608.546 1015.72,607.128 1017.11,605.712 1018.49,604.3 1019.87,602.892 1021.25,601.487 1022.63,600.085 1024.01,598.687 1025.39,597.292 1026.77,595.9 1028.16,594.512 1029.54,593.128 1030.92,591.747 1032.3,590.369 1033.68,588.994 1035.06,587.623 1036.44,586.255 1037.82,584.891 1039.2,583.53 1040.59,582.172 1041.97,580.818 1043.35,579.467 1044.73,578.119 1046.11,576.775 1047.49,575.434 1048.87,574.096 1050.25,572.761 1051.64,571.43 1053.02,570.102 1054.4,568.778 1055.78,567.457 1057.16,566.139 1058.54,564.824 1059.92,563.512 1061.3,562.204 1062.69,560.899 1064.07,559.597 1065.45,558.299 1066.83,557.003 1068.21,555.711 1069.59,554.422 1070.97,553.137 1072.35,551.854 1073.74,550.575 1075.12,549.299 1076.5,548.026 1077.88,546.756 1079.26,545.49 1080.64,544.226 1082.02,542.966 1083.4,541.709 1084.79,540.455 1086.17,539.204 1087.55,537.957 1088.93,536.712 1090.31,535.471 1091.69,534.232 1093.07,532.997 1094.45,531.765 1095.84,530.536 1097.22,529.31 1098.6,528.087 1099.98,526.867 1101.36,525.651 1102.74,524.437 1104.12,523.226 1105.5,522.019 1106.89,520.814 1108.27,519.613 1109.65,518.414 1111.03,517.219 1112.41,516.026 1113.79,514.837 1115.17,513.65 1116.55,512.467 1117.94,511.286 1119.32,510.109 1120.7,508.934 1122.08,507.763 1123.46,506.594 1124.84,505.428 1126.22,504.266 1127.6,503.106 1128.99,501.949 1130.37,500.795 1131.75,499.644 1133.13,498.496 1134.51,497.351 1135.89,496.208 1137.27,495.069 1138.65,493.933 1140.03,492.799 1141.42,491.668 1142.8,490.54 1144.18,489.415 1145.56,488.293 1146.94,487.174 1148.32,486.057 1149.7,484.944 1151.08,483.833 1152.47,482.725 1153.85,481.619 1155.23,480.517 1156.61,479.417 1157.99,478.321 1159.37,477.227 1160.75,476.135 1162.13,475.047 1163.52,473.961 1164.9,472.878 1166.28,471.798 1167.66,470.721 1169.04,469.646 1170.42,468.574 1171.8,467.505 1173.18,466.438 1174.57,465.374 1175.95,464.313 1177.33,463.255 1178.71,462.199 1180.09,461.146 1181.47,460.096 1182.85,459.048 1184.23,458.003 1185.62,456.961 1187,455.921 1188.38,454.884 1189.76,453.85 1191.14,452.818 1192.52,451.789 1193.9,450.762 1195.28,449.739 1196.67,448.717 1198.05,447.699 1199.43,446.683 1200.81,445.669 1202.19,444.658 1203.57,443.65 1204.95,442.644 1206.33,441.641 1207.72,440.64 1209.1,439.642 1210.48,438.647 1211.86,437.654 1213.24,436.664 1214.62,435.676 1216,434.69 1217.38,433.707 1218.77,432.727 1220.15,431.749 1221.53,430.774 1222.91,429.801 1224.29,428.831 1225.67,427.863 1227.05,426.897 1228.43,425.935 1229.81,424.974 1231.2,424.016 1232.58,423.06 1233.96,422.107 1235.34,421.157 1236.72,420.208 1238.1,419.262 1239.48,418.319 1240.86,417.378 1242.25,416.439 1243.63,415.503 1245.01,414.569 1246.39,413.638 1247.77,412.709 1249.15,411.782 1250.53,410.858 1251.91,409.936 1253.3,409.016 1254.68,408.099 1256.06,407.184 1257.44,406.272 1258.82,405.361 1260.2,404.453 1261.58,403.548 1262.96,402.645 1264.35,401.744 1265.73,400.845 1267.11,399.949 1268.49,399.054 1269.87,398.163 1271.25,397.273 1272.63,396.386 1274.01,395.501 1275.4,394.618 1276.78,393.738 1278.16,392.86 1279.54,391.984 1280.92,391.11 1282.3,390.238 1283.68,389.369 1285.06,388.502 1286.45,387.637 1287.83,386.775 1289.21,385.914 1290.59,385.056 1291.97,384.2 1293.35,383.346 1294.73,382.494 1296.11,381.645 1297.5,380.798 1298.88,379.952 1300.26,379.109 1301.64,378.269 1303.02,377.43 1304.4,376.593 1305.78,375.759 1307.16,374.927 1308.55,374.096 1309.93,373.268 1311.31,372.442 1312.69,371.619 1314.07,370.797 1315.45,369.977 1316.83,369.16 1318.21,368.344 1319.59,367.531 1320.98,366.72 1322.36,365.91 1323.74,365.103 1325.12,364.298 1326.5,363.495 1327.88,362.694 1329.26,361.895 1330.64,361.098 1332.03,360.303 1333.41,359.51 1334.79,358.719 1336.17,357.931 1337.55,357.144 1338.93,356.359 1340.31,355.576 1341.69,354.795 1343.08,354.016 1344.46,353.24 1345.84,352.465 1347.22,351.692 1348.6,350.921 1349.98,350.152 1351.36,349.385 1352.74,348.62 1354.13,347.857 1355.51,347.095 1356.89,346.336 1358.27,345.579 1359.65,344.823 1361.03,344.07 1362.41,343.318 1363.79,342.569 1365.18,341.821 1366.56,341.075 1367.94,340.331 1369.32,339.589 1370.7,338.849 1372.08,338.111 1373.46,337.374 1374.84,336.64 1376.23,335.907 1377.61,335.176 1378.99,334.447 1380.37,333.72 1381.75,332.995 1383.13,332.271 1384.51,331.55 1385.89,330.83 1387.28,330.112 1388.66,329.396 1390.04,328.682 1391.42,327.969 1392.8,327.258 1394.18,326.549 1395.56,325.842 1396.94,325.137 1398.33,324.434 1399.71,323.732 1401.09,323.032 1402.47,322.334 1403.85,321.637 1405.23,320.943 1406.61,320.25 1407.99,319.559 1409.37,318.869 1410.76,318.181 1412.14,317.496 1413.52,316.811 1414.9,316.129 1416.28,315.448 1417.66,314.769 1419.04,314.092 1420.42,313.416 1421.81,312.742 1423.19,312.07 1424.57,311.4 1425.95,310.731 1427.33,310.064 1428.71,309.399 1430.09,308.735 1431.47,308.073 1432.86,307.412 1434.24,306.754 1435.62,306.097 1437,305.441 1438.38,304.787 1439.76,304.135 1441.14,303.485 1442.52,302.836 1443.91,302.189 1445.29,301.543 1446.67,300.899 1448.05,300.257 1449.43,299.616 1450.81,298.977 1452.19,298.34 1453.57,297.704 1454.96,297.07 1456.34,296.437 1457.72,295.806 1459.1,295.177 1460.48,294.549 1461.86,293.922 1463.24,293.298 1464.62,292.674 1466.01,292.053 1467.39,291.433 1468.77,290.814 1470.15,290.197 1471.53,289.582 1472.91,288.968 1474.29,288.356 1475.67,287.745 1477.06,287.136 1478.44,286.528 1479.82,285.922 1481.2,285.317 1482.58,284.714 1483.96,284.112 1485.34,283.512 1486.72,282.913 1488.11,282.316 1489.49,281.72 1490.87,281.126 1492.25,280.534 1493.63,279.942 1495.01,279.353 1496.39,278.764 1497.77,278.178 1499.15,277.592 1500.54,277.009 1501.92,276.426 1503.3,275.845 1504.68,275.266 1506.06,274.688 1507.44,274.111 1508.82,273.536 1510.2,272.962 1511.59,272.39 1512.97,271.819 1514.35,271.25 1515.73,270.682 1517.11,270.115 1518.49,269.55 1519.87,268.986 1521.25,268.424 1522.64,267.863 1524.02,267.303 1525.4,266.745 1526.78,266.188 1528.16,265.633 1529.54,265.079 1530.92,264.526 1532.3,263.975 1533.69,263.425 1535.07,262.876 1536.45,262.329 1537.83,261.783 1539.21,261.239 1540.59,260.696 1541.97,260.154 1543.35,259.613 1544.74,259.074 1546.12,258.537 1547.5,258 1548.88,257.465 1550.26,256.931 1551.64,256.399 1553.02,255.868 1554.4,255.338 1555.79,254.809 1557.17,254.282 1558.55,253.756 1559.93,253.232 1561.31,252.708 1562.69,252.187 1564.07,251.666 1565.45,251.146 1566.84,250.628 1568.22,250.111 1569.6,249.596 1570.98,249.082 1572.36,248.569 1573.74,248.057 1575.12,247.546 1576.5,247.037 1577.89,246.529 1579.27,246.022 1580.65,245.517 1582.03,245.013 1583.41,244.51 1584.79,244.008 1586.17,243.507 1587.55,243.008 1588.94,242.51 1590.32,242.013 1591.7,241.518 1593.08,241.023 1594.46,240.53 1595.84,240.038 1597.22,239.547 1598.6,239.058 1599.98,238.57 1601.37,238.082 1602.75,237.596 1604.13,237.112 1605.51,236.628 1606.89,236.146 1608.27,235.665 1609.65,235.185 1611.03,234.706 1612.42,234.228 1613.8,233.752 1615.18,233.276 1616.56,232.802 1617.94,232.329 1619.32,231.857 1620.7,231.387 1622.08,230.917 1623.47,230.449 1624.85,229.981 1626.23,229.515 1627.61,229.05 1628.99,228.587 1630.37,228.124 1631.75,227.662 1633.13,227.202 1634.52,226.743 1635.9,226.285 1637.28,225.827 1638.66,225.371 1640.04,224.917 1641.42,224.463 1642.8,224.01 1644.18,223.559 1645.57,223.108 1646.95,222.659 1648.33,222.211 1649.71,221.764 1651.09,221.318 1652.47,220.873 1653.85,220.429 1655.23,219.986 1656.62,219.544 1658,219.104 1659.38,218.664 1660.76,218.226 1662.14,217.788 1663.52,217.352 1664.9,216.916 1666.28,216.482 1667.67,216.049 1669.05,215.617 1670.43,215.186 1671.81,214.756 1673.19,214.327 1674.57,213.899 1675.95,213.472 1677.33,213.046 1678.72,212.621 1680.1,212.197 1681.48,211.774 1682.86,211.352 1684.24,210.932 1685.62,210.512 1687,210.093 1688.38,209.675 1689.76,209.259 1691.15,208.843 1692.53,208.428 1693.91,208.014 1695.29,207.602 1696.67,207.19 1698.05,206.779 1699.43,206.37 1700.81,205.961 1702.2,205.553 1703.58,205.146 1704.96,204.74 1706.34,204.336 1707.72,203.932 1709.1,203.529 1710.48,203.127 1711.86,202.726 1713.25,202.326 1714.63,201.927 1716.01,201.529 1717.39,201.132 1718.77,200.736 1720.15,200.34 1721.53,199.946 1722.91,199.553 1724.3,199.16 1725.68,198.769 1727.06,198.379 1728.44,197.989 1729.82,197.6 1731.2,197.213 1732.58,196.826 1733.96,196.44 1735.35,196.055 1736.73,195.671 1738.11,195.288 1739.49,194.906 1740.87,194.525 1742.25,194.145 1743.63,193.765 1745.01,193.387 1746.4,193.009 1747.78,192.632 1749.16,192.256 1750.54,191.882 1751.92,191.508 1753.3,191.134 1754.68,190.762 1756.06,190.391 1757.45,190.02 1758.83,189.651 1760.21,189.282 1761.59,188.914 1762.97,188.547 1764.35,188.181 1765.73,187.816 1767.11,187.452 1768.5,187.088 1769.88,186.726 1771.26,186.364 1772.64,186.003 1774.02,185.643 1775.4,185.284 1776.78,184.926 1778.16,184.568 1779.54,184.212 1780.93,183.856 1782.31,183.501 1783.69,183.147 1785.07,182.794 1786.45,182.441 1787.83,182.09 1789.21,181.739 1790.59,181.389 1791.98,181.04 1793.36,180.692 1794.74,180.344 1796.12,179.998 1797.5,179.652 1798.88,179.307 1800.26,178.963 1801.64,178.619 1803.03,178.277 1804.41,177.935 1805.79,177.594 1807.17,177.254 1808.55,176.915 1809.93,176.576 1811.31,176.239 1812.69,175.902 1814.08,175.566 1815.46,175.23 1816.84,174.896 1818.22,174.562 1819.6,174.229 1820.98,173.897 1822.36,173.565 1823.74,173.235 1825.13,172.905 1826.51,172.576 1827.89,172.248 1829.27,171.92 1830.65,171.593 1832.03,171.267 1833.41,170.942 1834.79,170.618 1836.18,170.294 1837.56,169.971 1838.94,169.649 1840.32,169.327 1841.7,169.007 1843.08,168.687 1844.46,168.368 1845.84,168.049 1847.23,167.732 1848.61,167.415 1849.99,167.098 1851.37,166.783 1852.75,166.468 1854.13,166.154 1855.51,165.841 1856.89,165.528 1858.28,165.217 1859.66,164.906 1861.04,164.595 1862.42,164.286 1863.8,163.977 1865.18,163.669 1866.56,163.361 1867.94,163.054 1869.32,162.748 1870.71,162.443 1872.09,162.138 1873.47,161.835 1874.85,161.531 1876.23,161.229 1877.61,160.927 1878.99,160.626 1880.37,160.326 1881.76,160.026 1883.14,159.727 1884.52,159.429 1885.9,159.131 1887.28,158.834 1888.66,158.538 1890.04,158.242 1891.42,157.948 1892.81,157.653 1894.19,157.36 1895.57,157.067 1896.95,156.775 1898.33,156.484 1899.71,156.193 1901.09,155.903 1902.47,155.613 1903.86,155.324 1905.24,155.036 1906.62,154.749 1908,154.462 1909.38,154.176 1910.76,153.891 1912.14,153.606 1913.52,153.322 1914.91,153.038 1916.29,152.755 1917.67,152.473 1919.05,152.192 1920.43,151.911 1921.81,151.631 1923.19,151.351 1924.57,151.072 1925.96,150.794 1927.34,150.516 1928.72,150.239 1930.1,149.963 1931.48,149.687 1932.86,149.412 1934.24,149.138 1935.62,148.864 1937.01,148.591 1938.39,148.318 1939.77,148.046 1941.15,147.775 1942.53,147.504 1943.91,147.234 1945.29,146.964 1946.67,146.696 1948.06,146.427 1949.44,146.16 1950.82,145.893 1952.2,145.626 1953.58,145.36 1954.96,145.095 1956.34,144.831 1957.72,144.567 1959.11,144.303 1960.49,144.041 1961.87,143.778 1963.25,143.517 1964.63,143.256 1966.01,142.996 1967.39,142.736 1968.77,142.477 1970.15,142.218 1971.54,141.96 1972.92,141.703 1974.3,141.446 1975.68,141.189 1977.06,140.934 1978.44,140.679 1979.82,140.424 1981.2,140.17 1982.59,139.917 1983.97,139.664 1985.35,139.412 1986.73,139.16 1988.11,138.909 1989.49,138.659 1990.87,138.409 1992.25,138.159 1993.64,137.911 1995.02,137.662 1996.4,137.415 1997.78,137.168 1999.16,136.921 2000.54,136.675 2001.92,136.43 2003.3,136.185 2004.69,135.941 2006.07,135.697 2007.45,135.454 2008.83,135.211 2010.21,134.969 2011.59,134.727 2012.97,134.486 2014.35,134.246 2015.74,134.006 2017.12,133.766 2018.5,133.528 2019.88,133.289 2021.26,133.052 2022.64,132.814 2024.02,132.578 2025.4,132.341 2026.79,132.106 2028.17,131.871 2029.55,131.636 2030.93,131.402 2032.31,131.169 2033.69,130.936 2035.07,130.703 2036.45,130.471 2037.84,130.24 2039.22,130.009 2040.6,129.778 2041.98,129.549 2043.36,129.319 2044.74,129.09 2046.12,128.862 2047.5,128.634 2048.89,128.407 2050.27,128.18 2051.65,127.954 2053.03,127.728 2054.41,127.503 2055.79,127.278 2057.17,127.054 2058.55,126.83 2059.93,126.607 2061.32,126.384 2062.7,126.162 2064.08,125.94 2065.46,125.719 2066.84,125.498 2068.22,125.278 2069.6,125.058 2070.98,124.838 2072.37,124.62 2073.75,124.401 2075.13,124.183 2076.51,123.966 2077.89,123.749 2079.27,123.533 2080.65,123.317 2082.03,123.101 2083.42,122.886 2084.8,122.672 2086.18,122.458 2087.56,122.244 2088.94,122.031 2090.32,121.819 2091.7,121.607 2093.08,121.395 2094.47,121.184 2095.85,120.973 2097.23,120.763 2098.61,120.553 2099.99,120.344 2101.37,120.135 2102.75,119.927 2104.13,119.719 2105.52,119.511 2106.9,119.304 2108.28,119.098 2109.66,118.892 2111.04,118.686 2112.42,118.481 2113.8,118.276 2115.18,118.072 2116.57,117.868 2117.95,117.665 2119.33,117.462 2120.71,117.26 2122.09,117.058 2123.47,116.856 2124.85,116.655 2126.23,116.454 2127.62,116.254 2129,116.054 2130.38,115.855 2131.76,115.656 2133.14,115.458 2134.52,115.259 2135.9,115.062 2137.28,114.865 2138.67,114.668 2140.05,114.472 2141.43,114.276 2142.81,114.08 2144.19,113.885 2145.57,113.691 2146.95,113.497 2148.33,113.303 2149.71,113.11 2151.1,112.917 2152.48,112.724 2153.86,112.532 2155.24,112.341 2156.62,112.149 2158,111.959 2159.38,111.768 2160.76,111.578 2162.15,111.389 2163.53,111.2 2164.91,111.011 2166.29,110.823 2167.67,110.635 2169.05,110.447 2170.43,110.26 2171.81,110.074 2173.2,109.887 2174.58,109.702 2175.96,109.516 2177.34,109.331 2178.72,109.147 2180.1,108.962 2181.48,108.778 2182.86,108.595 2184.25,108.412 2185.63,108.229 2187.01,108.047 2188.39,107.865 2189.77,107.684 2191.15,107.503 2192.53,107.322 2193.91,107.142 2195.3,106.962 2196.68,106.783 2198.06,106.604 2199.44,106.425 2200.82,106.247 2202.2,106.069 2203.58,105.891 2204.96,105.714 2206.35,105.537 2207.73,105.361 2209.11,105.185 2210.49,105.009 2211.87,104.834 2213.25,104.659 2214.63,104.485 2216.01,104.311 2217.4,104.137 2218.78,103.964 2220.16,103.791 2221.54,103.618 2222.92,103.446 2224.3,103.274 2225.68,103.102 2227.06,102.931 2228.45,102.761 2229.83,102.59 2231.21,102.42 2232.59,102.251 2233.97,102.081 2235.35,101.912 2236.73,101.744 2238.11,101.576 2239.49,101.408 2240.88,101.24 2242.26,101.073 2243.64,100.907 2245.02,100.74 2246.4,100.574 2247.78,100.408 2249.16,100.243 2250.54,100.078 2251.93,99.9136 2253.31,99.7494 2254.69,99.5855 2256.07,99.4219 2257.45,99.2587 2258.83,99.0959 2260.21,98.9334 2261.59,98.7712 2262.98,98.6094 2264.36,98.448 2265.74,98.2869 2267.12,98.1261 2268.5,97.9657 2269.88,97.8056 2271.26,97.6459 2272.64,97.4865 2274.03,97.3274 2275.41,97.1687 2276.79,97.0103 2278.17,96.8523 2279.55,96.6946 2280.93,96.5372 2282.31,96.3802 2283.69,96.2235 2285.08,96.0671 2286.46,95.9111 2287.84,95.7554 2289.22,95.6 2290.6,95.445 "/>
<path clip-path="url(#clip150)" d="M229.803 250.738 L855.412 250.738 L855.412 95.2176 L229.803 95.2176  Z" fill="#ffffff" fill-rule="evenodd" fill-opacity="1"/>
<polyline clip-path="url(#clip150)" style="stroke:#000000; stroke-linecap:round; stroke-linejoin:round; stroke-width:4; stroke-opacity:1; fill:none" points="229.803,250.738 855.412,250.738 855.412,95.2176 229.803,95.2176 229.803,250.738 "/>
<polyline clip-path="url(#clip150)" style="stroke:#009af9; stroke-linecap:round; stroke-linejoin:round; stroke-width:4; stroke-opacity:1; fill:none" points="254.205,147.058 400.616,147.058 "/>
<path clip-path="url(#clip150)" d="M425.018 129.778 L429.717 129.778 L429.717 150.773 Q429.717 156.328 431.73 158.782 Q433.744 161.213 438.258 161.213 Q442.749 161.213 444.763 158.782 Q446.777 156.328 446.777 150.773 L446.777 129.778 L451.476 129.778 L451.476 151.352 Q451.476 158.111 448.119 161.56 Q444.786 165.009 438.258 165.009 Q431.707 165.009 428.351 161.56 Q425.018 158.111 425.018 151.352 L425.018 129.778 Z" fill="#000000" fill-rule="nonzero" fill-opacity="1" /><path clip-path="url(#clip150)" d="M481.614 148.689 L481.614 164.338 L477.355 164.338 L477.355 148.828 Q477.355 145.148 475.92 143.319 Q474.485 141.49 471.614 141.49 Q468.165 141.49 466.175 143.69 Q464.184 145.889 464.184 149.685 L464.184 164.338 L459.902 164.338 L459.902 138.412 L464.184 138.412 L464.184 142.44 Q465.712 140.102 467.772 138.944 Q469.855 137.787 472.564 137.787 Q477.031 137.787 479.323 140.565 Q481.614 143.319 481.614 148.689 Z" fill="#000000" fill-rule="nonzero" fill-opacity="1" /><path clip-path="url(#clip150)" d="M508.767 139.407 L508.767 143.389 Q506.962 142.393 505.133 141.907 Q503.327 141.398 501.475 141.398 Q497.332 141.398 495.04 144.037 Q492.749 146.652 492.749 151.398 Q492.749 156.143 495.04 158.782 Q497.332 161.398 501.475 161.398 Q503.327 161.398 505.133 160.912 Q506.962 160.402 508.767 159.407 L508.767 163.342 Q506.985 164.176 505.063 164.592 Q503.165 165.009 501.012 165.009 Q495.156 165.009 491.707 161.328 Q488.258 157.648 488.258 151.398 Q488.258 145.055 491.73 141.421 Q495.225 137.787 501.29 137.787 Q503.258 137.787 505.133 138.203 Q507.008 138.597 508.767 139.407 Z" fill="#000000" fill-rule="nonzero" fill-opacity="1" /><path clip-path="url(#clip150)" d="M538.35 150.31 L538.35 152.393 L518.767 152.393 Q519.045 156.791 521.406 159.106 Q523.79 161.398 528.026 161.398 Q530.48 161.398 532.772 160.796 Q535.086 160.194 537.355 158.99 L537.355 163.018 Q535.063 163.99 532.656 164.5 Q530.248 165.009 527.772 165.009 Q521.568 165.009 517.934 161.398 Q514.323 157.787 514.323 151.629 Q514.323 145.264 517.748 141.537 Q521.198 137.787 527.031 137.787 Q532.262 137.787 535.295 141.166 Q538.35 144.523 538.35 150.31 M534.091 149.06 Q534.045 145.565 532.123 143.481 Q530.225 141.398 527.077 141.398 Q523.512 141.398 521.36 143.412 Q519.23 145.426 518.906 149.083 L534.091 149.06 Z" fill="#000000" fill-rule="nonzero" fill-opacity="1" /><path clip-path="url(#clip150)" d="M566.892 148.689 L566.892 164.338 L562.633 164.338 L562.633 148.828 Q562.633 145.148 561.197 143.319 Q559.762 141.49 556.892 141.49 Q553.443 141.49 551.452 143.69 Q549.461 145.889 549.461 149.685 L549.461 164.338 L545.179 164.338 L545.179 138.412 L549.461 138.412 L549.461 142.44 Q550.989 140.102 553.049 138.944 Q555.133 137.787 557.841 137.787 Q562.308 137.787 564.6 140.565 Q566.892 143.319 566.892 148.689 Z" fill="#000000" fill-rule="nonzero" fill-opacity="1" /><path clip-path="url(#clip150)" d="M591.915 139.176 L591.915 143.203 Q590.109 142.277 588.165 141.815 Q586.22 141.352 584.137 141.352 Q580.966 141.352 579.369 142.324 Q577.794 143.296 577.794 145.24 Q577.794 146.722 578.929 147.578 Q580.063 148.412 583.489 149.176 L584.947 149.5 Q589.484 150.472 591.382 152.254 Q593.304 154.014 593.304 157.185 Q593.304 160.796 590.433 162.902 Q587.586 165.009 582.586 165.009 Q580.503 165.009 578.234 164.592 Q575.989 164.199 573.489 163.388 L573.489 158.99 Q575.85 160.217 578.142 160.842 Q580.433 161.444 582.679 161.444 Q585.688 161.444 587.308 160.426 Q588.929 159.384 588.929 157.509 Q588.929 155.773 587.748 154.847 Q586.591 153.921 582.632 153.064 L581.151 152.717 Q577.193 151.884 575.433 150.171 Q573.674 148.435 573.674 145.426 Q573.674 141.768 576.267 139.778 Q578.859 137.787 583.628 137.787 Q585.989 137.787 588.072 138.134 Q590.156 138.481 591.915 139.176 Z" fill="#000000" fill-rule="nonzero" fill-opacity="1" /><path clip-path="url(#clip150)" d="M610.132 141.398 Q606.706 141.398 604.716 144.083 Q602.725 146.745 602.725 151.398 Q602.725 156.051 604.692 158.736 Q606.683 161.398 610.132 161.398 Q613.535 161.398 615.526 158.713 Q617.516 156.027 617.516 151.398 Q617.516 146.791 615.526 144.106 Q613.535 141.398 610.132 141.398 M610.132 137.787 Q615.688 137.787 618.859 141.398 Q622.03 145.009 622.03 151.398 Q622.03 157.764 618.859 161.398 Q615.688 165.009 610.132 165.009 Q604.554 165.009 601.382 161.398 Q598.234 157.764 598.234 151.398 Q598.234 145.009 601.382 141.398 Q604.554 137.787 610.132 137.787 Z" fill="#000000" fill-rule="nonzero" fill-opacity="1" /><path clip-path="url(#clip150)" d="M644.114 142.393 Q643.396 141.977 642.539 141.791 Q641.706 141.583 640.688 141.583 Q637.077 141.583 635.132 143.944 Q633.211 146.282 633.211 150.68 L633.211 164.338 L628.928 164.338 L628.928 138.412 L633.211 138.412 L633.211 142.44 Q634.553 140.078 636.706 138.944 Q638.859 137.787 641.938 137.787 Q642.377 137.787 642.91 137.856 Q643.442 137.903 644.09 138.018 L644.114 142.393 Z" fill="#000000" fill-rule="nonzero" fill-opacity="1" /><path clip-path="url(#clip150)" d="M669.715 150.31 L669.715 152.393 L650.132 152.393 Q650.41 156.791 652.771 159.106 Q655.155 161.398 659.391 161.398 Q661.845 161.398 664.137 160.796 Q666.451 160.194 668.72 158.99 L668.72 163.018 Q666.428 163.99 664.021 164.5 Q661.613 165.009 659.137 165.009 Q652.933 165.009 649.299 161.398 Q645.688 157.787 645.688 151.629 Q645.688 145.264 649.114 141.537 Q652.563 137.787 658.396 137.787 Q663.627 137.787 666.66 141.166 Q669.715 144.523 669.715 150.31 M665.456 149.06 Q665.41 145.565 663.488 143.481 Q661.59 141.398 658.442 141.398 Q654.877 141.398 652.725 143.412 Q650.595 145.426 650.271 149.083 L665.456 149.06 Z" fill="#000000" fill-rule="nonzero" fill-opacity="1" /><path clip-path="url(#clip150)" d="M693.766 142.347 L693.766 128.319 L698.025 128.319 L698.025 164.338 L693.766 164.338 L693.766 160.449 Q692.423 162.763 690.363 163.898 Q688.326 165.009 685.456 165.009 Q680.757 165.009 677.794 161.259 Q674.854 157.509 674.854 151.398 Q674.854 145.287 677.794 141.537 Q680.757 137.787 685.456 137.787 Q688.326 137.787 690.363 138.921 Q692.423 140.032 693.766 142.347 M679.252 151.398 Q679.252 156.097 681.174 158.782 Q683.118 161.444 686.498 161.444 Q689.877 161.444 691.822 158.782 Q693.766 156.097 693.766 151.398 Q693.766 146.699 691.822 144.037 Q689.877 141.352 686.498 141.352 Q683.118 141.352 681.174 144.037 Q679.252 146.699 679.252 151.398 Z" fill="#000000" fill-rule="nonzero" fill-opacity="1" /><polyline clip-path="url(#clip150)" style="stroke:#e26f46; stroke-linecap:round; stroke-linejoin:round; stroke-width:4; stroke-opacity:1; fill:none" points="254.205,198.898 400.616,198.898 "/>
<path clip-path="url(#clip150)" d="M429.693 185.46 L429.693 198.446 L435.573 198.446 Q438.837 198.446 440.619 196.756 Q442.402 195.067 442.402 191.942 Q442.402 188.84 440.619 187.15 Q438.837 185.46 435.573 185.46 L429.693 185.46 M425.018 181.618 L435.573 181.618 Q441.383 181.618 444.346 184.256 Q447.332 186.872 447.332 191.942 Q447.332 197.057 444.346 199.673 Q441.383 202.289 435.573 202.289 L429.693 202.289 L429.693 216.178 L425.018 216.178 L425.018 181.618 Z" fill="#000000" fill-rule="nonzero" fill-opacity="1" /><path clip-path="url(#clip150)" d="M467.61 194.233 Q466.892 193.817 466.036 193.631 Q465.202 193.423 464.184 193.423 Q460.573 193.423 458.628 195.784 Q456.707 198.122 456.707 202.52 L456.707 216.178 L452.425 216.178 L452.425 190.252 L456.707 190.252 L456.707 194.28 Q458.05 191.918 460.203 190.784 Q462.355 189.627 465.434 189.627 Q465.874 189.627 466.406 189.696 Q466.939 189.743 467.587 189.858 L467.61 194.233 Z" fill="#000000" fill-rule="nonzero" fill-opacity="1" /><path clip-path="url(#clip150)" d="M472.077 190.252 L476.337 190.252 L476.337 216.178 L472.077 216.178 L472.077 190.252 M472.077 180.159 L476.337 180.159 L476.337 185.553 L472.077 185.553 L472.077 180.159 Z" fill="#000000" fill-rule="nonzero" fill-opacity="1" /><path clip-path="url(#clip150)" d="M505.434 195.229 Q507.031 192.358 509.253 190.993 Q511.475 189.627 514.485 189.627 Q518.536 189.627 520.735 192.474 Q522.934 195.298 522.934 200.529 L522.934 216.178 L518.651 216.178 L518.651 200.668 Q518.651 196.942 517.332 195.136 Q516.012 193.33 513.304 193.33 Q509.994 193.33 508.073 195.53 Q506.151 197.729 506.151 201.525 L506.151 216.178 L501.869 216.178 L501.869 200.668 Q501.869 196.918 500.55 195.136 Q499.23 193.33 496.475 193.33 Q493.212 193.33 491.29 195.553 Q489.369 197.752 489.369 201.525 L489.369 216.178 L485.087 216.178 L485.087 190.252 L489.369 190.252 L489.369 194.28 Q490.827 191.895 492.864 190.761 Q494.901 189.627 497.702 189.627 Q500.526 189.627 502.494 191.062 Q504.485 192.497 505.434 195.229 Z" fill="#000000" fill-rule="nonzero" fill-opacity="1" /><path clip-path="url(#clip150)" d="M543.211 203.145 Q538.049 203.145 536.059 204.326 Q534.068 205.506 534.068 208.354 Q534.068 210.622 535.549 211.965 Q537.054 213.284 539.623 213.284 Q543.165 213.284 545.295 210.784 Q547.447 208.261 547.447 204.094 L547.447 203.145 L543.211 203.145 M551.707 201.386 L551.707 216.178 L547.447 216.178 L547.447 212.242 Q545.989 214.603 543.813 215.738 Q541.637 216.849 538.489 216.849 Q534.508 216.849 532.147 214.627 Q529.809 212.381 529.809 208.631 Q529.809 204.256 532.725 202.034 Q535.665 199.812 541.475 199.812 L547.447 199.812 L547.447 199.395 Q547.447 196.455 545.503 194.858 Q543.582 193.238 540.086 193.238 Q537.864 193.238 535.758 193.77 Q533.651 194.303 531.707 195.367 L531.707 191.432 Q534.045 190.53 536.244 190.09 Q538.443 189.627 540.526 189.627 Q546.151 189.627 548.929 192.543 Q551.707 195.46 551.707 201.386 Z" fill="#000000" fill-rule="nonzero" fill-opacity="1" /><path clip-path="url(#clip150)" d="M575.503 194.233 Q574.785 193.817 573.929 193.631 Q573.095 193.423 572.077 193.423 Q568.466 193.423 566.521 195.784 Q564.6 198.122 564.6 202.52 L564.6 216.178 L560.318 216.178 L560.318 190.252 L564.6 190.252 L564.6 194.28 Q565.943 191.918 568.095 190.784 Q570.248 189.627 573.327 189.627 Q573.767 189.627 574.299 189.696 Q574.832 189.743 575.48 189.858 L575.503 194.233 Z" fill="#000000" fill-rule="nonzero" fill-opacity="1" /><path clip-path="url(#clip150)" d="M590.757 218.585 Q588.952 223.215 587.239 224.627 Q585.526 226.039 582.656 226.039 L579.253 226.039 L579.253 222.474 L581.753 222.474 Q583.512 222.474 584.484 221.64 Q585.456 220.807 586.637 217.705 L587.401 215.761 L576.915 190.252 L581.429 190.252 L589.531 210.529 L597.632 190.252 L602.146 190.252 L590.757 218.585 Z" fill="#000000" fill-rule="nonzero" fill-opacity="1" /><path clip-path="url(#clip150)" d="M641.752 191.247 L641.752 195.229 Q639.947 194.233 638.118 193.747 Q636.313 193.238 634.461 193.238 Q630.317 193.238 628.026 195.877 Q625.734 198.492 625.734 203.238 Q625.734 207.983 628.026 210.622 Q630.317 213.238 634.461 213.238 Q636.313 213.238 638.118 212.752 Q639.947 212.242 641.752 211.247 L641.752 215.182 Q639.97 216.016 638.049 216.432 Q636.151 216.849 633.998 216.849 Q628.141 216.849 624.692 213.168 Q621.243 209.488 621.243 203.238 Q621.243 196.895 624.716 193.261 Q628.211 189.627 634.276 189.627 Q636.243 189.627 638.118 190.043 Q639.993 190.437 641.752 191.247 Z" fill="#000000" fill-rule="nonzero" fill-opacity="1" /><path clip-path="url(#clip150)" d="M671.336 202.15 L671.336 204.233 L651.752 204.233 Q652.03 208.631 654.391 210.946 Q656.776 213.238 661.012 213.238 Q663.465 213.238 665.757 212.636 Q668.072 212.034 670.34 210.83 L670.34 214.858 Q668.049 215.83 665.641 216.34 Q663.234 216.849 660.757 216.849 Q654.553 216.849 650.919 213.238 Q647.308 209.627 647.308 203.469 Q647.308 197.104 650.734 193.377 Q654.183 189.627 660.016 189.627 Q665.248 189.627 668.28 193.006 Q671.336 196.363 671.336 202.15 M667.076 200.9 Q667.03 197.405 665.109 195.321 Q663.211 193.238 660.063 193.238 Q656.498 193.238 654.345 195.252 Q652.215 197.266 651.891 200.923 L667.076 200.9 Z" fill="#000000" fill-rule="nonzero" fill-opacity="1" /><path clip-path="url(#clip150)" d="M699.877 200.529 L699.877 216.178 L695.618 216.178 L695.618 200.668 Q695.618 196.988 694.183 195.159 Q692.748 193.33 689.877 193.33 Q686.428 193.33 684.437 195.53 Q682.447 197.729 682.447 201.525 L682.447 216.178 L678.164 216.178 L678.164 190.252 L682.447 190.252 L682.447 194.28 Q683.974 191.942 686.035 190.784 Q688.118 189.627 690.826 189.627 Q695.294 189.627 697.585 192.405 Q699.877 195.159 699.877 200.529 Z" fill="#000000" fill-rule="nonzero" fill-opacity="1" /><path clip-path="url(#clip150)" d="M724.9 191.016 L724.9 195.043 Q723.095 194.117 721.15 193.655 Q719.206 193.192 717.122 193.192 Q713.951 193.192 712.354 194.164 Q710.78 195.136 710.78 197.08 Q710.78 198.562 711.914 199.418 Q713.048 200.252 716.474 201.016 L717.933 201.34 Q722.47 202.312 724.368 204.094 Q726.289 205.854 726.289 209.025 Q726.289 212.636 723.419 214.742 Q720.571 216.849 715.572 216.849 Q713.488 216.849 711.22 216.432 Q708.974 216.039 706.474 215.228 L706.474 210.83 Q708.835 212.057 711.127 212.682 Q713.419 213.284 715.664 213.284 Q718.673 213.284 720.294 212.266 Q721.914 211.224 721.914 209.349 Q721.914 207.613 720.734 206.687 Q719.576 205.761 715.618 204.904 L714.136 204.557 Q710.178 203.724 708.419 202.011 Q706.66 200.275 706.66 197.266 Q706.66 193.608 709.252 191.618 Q711.845 189.627 716.613 189.627 Q718.974 189.627 721.058 189.974 Q723.141 190.321 724.9 191.016 Z" fill="#000000" fill-rule="nonzero" fill-opacity="1" /><path clip-path="url(#clip150)" d="M743.118 193.238 Q739.692 193.238 737.701 195.923 Q735.71 198.585 735.71 203.238 Q735.71 207.891 737.678 210.576 Q739.669 213.238 743.118 213.238 Q746.52 213.238 748.511 210.553 Q750.502 207.867 750.502 203.238 Q750.502 198.631 748.511 195.946 Q746.52 193.238 743.118 193.238 M743.118 189.627 Q748.673 189.627 751.844 193.238 Q755.016 196.849 755.016 203.238 Q755.016 209.604 751.844 213.238 Q748.673 216.849 743.118 216.849 Q737.539 216.849 734.368 213.238 Q731.22 209.604 731.22 203.238 Q731.22 196.849 734.368 193.238 Q737.539 189.627 743.118 189.627 Z" fill="#000000" fill-rule="nonzero" fill-opacity="1" /><path clip-path="url(#clip150)" d="M777.099 194.233 Q776.381 193.817 775.525 193.631 Q774.692 193.423 773.673 193.423 Q770.062 193.423 768.118 195.784 Q766.196 198.122 766.196 202.52 L766.196 216.178 L761.914 216.178 L761.914 190.252 L766.196 190.252 L766.196 194.28 Q767.539 191.918 769.692 190.784 Q771.844 189.627 774.923 189.627 Q775.363 189.627 775.895 189.696 Q776.428 189.743 777.076 189.858 L777.099 194.233 Z" fill="#000000" fill-rule="nonzero" fill-opacity="1" /><path clip-path="url(#clip150)" d="M802.701 202.15 L802.701 204.233 L783.117 204.233 Q783.395 208.631 785.756 210.946 Q788.141 213.238 792.377 213.238 Q794.83 213.238 797.122 212.636 Q799.437 212.034 801.705 210.83 L801.705 214.858 Q799.414 215.83 797.006 216.34 Q794.599 216.849 792.122 216.849 Q785.918 216.849 782.284 213.238 Q778.673 209.627 778.673 203.469 Q778.673 197.104 782.099 193.377 Q785.548 189.627 791.381 189.627 Q796.613 189.627 799.645 193.006 Q802.701 196.363 802.701 202.15 M798.441 200.9 Q798.395 197.405 796.474 195.321 Q794.576 193.238 791.428 193.238 Q787.863 193.238 785.71 195.252 Q783.58 197.266 783.256 200.923 L798.441 200.9 Z" fill="#000000" fill-rule="nonzero" fill-opacity="1" /><path clip-path="url(#clip150)" d="M826.751 194.187 L826.751 180.159 L831.011 180.159 L831.011 216.178 L826.751 216.178 L826.751 212.289 Q825.409 214.603 823.349 215.738 Q821.312 216.849 818.441 216.849 Q813.742 216.849 810.779 213.099 Q807.84 209.349 807.84 203.238 Q807.84 197.127 810.779 193.377 Q813.742 189.627 818.441 189.627 Q821.312 189.627 823.349 190.761 Q825.409 191.872 826.751 194.187 M812.238 203.238 Q812.238 207.937 814.159 210.622 Q816.103 213.284 819.483 213.284 Q822.863 213.284 824.807 210.622 Q826.751 207.937 826.751 203.238 Q826.751 198.539 824.807 195.877 Q822.863 193.192 819.483 193.192 Q816.103 193.192 814.159 195.877 Q812.238 198.539 812.238 203.238 Z" fill="#000000" fill-rule="nonzero" fill-opacity="1" /></svg>
