<?xml version="1.0" encoding="utf-8"?>
<svg xmlns="http://www.w3.org/2000/svg" xmlns:xlink="http://www.w3.org/1999/xlink" width="600" height="400" viewBox="0 0 2400 1600">
<defs>
  <clipPath id="clip480">
    <rect x="0" y="0" width="2400" height="1600"/>
  </clipPath>
</defs>
<path clip-path="url(#clip480)" d="M0 1600 L2400 1600 L2400 0 L0 0  Z" fill="#ffffff" fill-rule="evenodd" fill-opacity="1"/>
<defs>
  <clipPath id="clip481">
    <rect x="480" y="0" width="1681" height="1600"/>
  </clipPath>
</defs>
<path clip-path="url(#clip480)" d="M186.274 1486.45 L2352.76 1486.45 L2352.76 47.2441 L186.274 47.2441  Z" fill="#ffffff" fill-rule="evenodd" fill-opacity="1"/>
<defs>
  <clipPath id="clip482">
    <rect x="186" y="47" width="2167" height="1440"/>
  </clipPath>
</defs>
<polyline clip-path="url(#clip482)" style="stroke:#000000; stroke-linecap:round; stroke-linejoin:round; stroke-width:2; stroke-opacity:0.1; fill:none" points="247.59,1486.45 247.59,47.2441 "/>
<polyline clip-path="url(#clip482)" style="stroke:#000000; stroke-linecap:round; stroke-linejoin:round; stroke-width:2; stroke-opacity:0.1; fill:none" points="928.873,1486.45 928.873,47.2441 "/>
<polyline clip-path="url(#clip482)" style="stroke:#000000; stroke-linecap:round; stroke-linejoin:round; stroke-width:2; stroke-opacity:0.1; fill:none" points="1610.16,1486.45 1610.16,47.2441 "/>
<polyline clip-path="url(#clip482)" style="stroke:#000000; stroke-linecap:round; stroke-linejoin:round; stroke-width:2; stroke-opacity:0.1; fill:none" points="2291.44,1486.45 2291.44,47.2441 "/>
<polyline clip-path="url(#clip482)" style="stroke:#000000; stroke-linecap:round; stroke-linejoin:round; stroke-width:2; stroke-opacity:0.1; fill:none" points="186.274,1445.72 2352.76,1445.72 "/>
<polyline clip-path="url(#clip482)" style="stroke:#000000; stroke-linecap:round; stroke-linejoin:round; stroke-width:2; stroke-opacity:0.1; fill:none" points="186.274,1013.96 2352.76,1013.96 "/>
<polyline clip-path="url(#clip482)" style="stroke:#000000; stroke-linecap:round; stroke-linejoin:round; stroke-width:2; stroke-opacity:0.1; fill:none" points="186.274,582.211 2352.76,582.211 "/>
<polyline clip-path="url(#clip482)" style="stroke:#000000; stroke-linecap:round; stroke-linejoin:round; stroke-width:2; stroke-opacity:0.1; fill:none" points="186.274,150.458 2352.76,150.458 "/>
<polyline clip-path="url(#clip480)" style="stroke:#000000; stroke-linecap:round; stroke-linejoin:round; stroke-width:4; stroke-opacity:1; fill:none" points="186.274,1486.45 2352.76,1486.45 "/>
<polyline clip-path="url(#clip480)" style="stroke:#000000; stroke-linecap:round; stroke-linejoin:round; stroke-width:4; stroke-opacity:1; fill:none" points="247.59,1486.45 247.59,1467.55 "/>
<polyline clip-path="url(#clip480)" style="stroke:#000000; stroke-linecap:round; stroke-linejoin:round; stroke-width:4; stroke-opacity:1; fill:none" points="928.873,1486.45 928.873,1467.55 "/>
<polyline clip-path="url(#clip480)" style="stroke:#000000; stroke-linecap:round; stroke-linejoin:round; stroke-width:4; stroke-opacity:1; fill:none" points="1610.16,1486.45 1610.16,1467.55 "/>
<polyline clip-path="url(#clip480)" style="stroke:#000000; stroke-linecap:round; stroke-linejoin:round; stroke-width:4; stroke-opacity:1; fill:none" points="2291.44,1486.45 2291.44,1467.55 "/>
<path clip-path="url(#clip480)" d="M247.59 1517.37 Q243.978 1517.37 242.15 1520.93 Q240.344 1524.47 240.344 1531.6 Q240.344 1538.71 242.15 1542.27 Q243.978 1545.82 247.59 1545.82 Q251.224 1545.82 253.029 1542.27 Q254.858 1538.71 254.858 1531.6 Q254.858 1524.47 253.029 1520.93 Q251.224 1517.37 247.59 1517.37 M247.59 1513.66 Q253.4 1513.66 256.455 1518.27 Q259.534 1522.85 259.534 1531.6 Q259.534 1540.33 256.455 1544.94 Q253.4 1549.52 247.59 1549.52 Q241.779 1549.52 238.701 1544.94 Q235.645 1540.33 235.645 1531.6 Q235.645 1522.85 238.701 1518.27 Q241.779 1513.66 247.59 1513.66 Z" fill="#000000" fill-rule="nonzero" fill-opacity="1" /><path clip-path="url(#clip480)" d="M919.151 1514.29 L937.507 1514.29 L937.507 1518.22 L923.433 1518.22 L923.433 1526.7 Q924.452 1526.35 925.47 1526.19 Q926.489 1526 927.507 1526 Q933.294 1526 936.674 1529.17 Q940.054 1532.34 940.054 1537.76 Q940.054 1543.34 936.581 1546.44 Q933.109 1549.52 926.79 1549.52 Q924.614 1549.52 922.345 1549.15 Q920.1 1548.78 917.693 1548.04 L917.693 1543.34 Q919.776 1544.47 921.998 1545.03 Q924.22 1545.58 926.697 1545.58 Q930.702 1545.58 933.04 1543.48 Q935.378 1541.37 935.378 1537.76 Q935.378 1534.15 933.04 1532.04 Q930.702 1529.94 926.697 1529.94 Q924.822 1529.94 922.947 1530.35 Q921.095 1530.77 919.151 1531.65 L919.151 1514.29 Z" fill="#000000" fill-rule="nonzero" fill-opacity="1" /><path clip-path="url(#clip480)" d="M1584.84 1544.91 L1592.48 1544.91 L1592.48 1518.55 L1584.17 1520.21 L1584.17 1515.95 L1592.44 1514.29 L1597.11 1514.29 L1597.11 1544.91 L1604.75 1544.91 L1604.75 1548.85 L1584.84 1548.85 L1584.84 1544.91 Z" fill="#000000" fill-rule="nonzero" fill-opacity="1" /><path clip-path="url(#clip480)" d="M1624.2 1517.37 Q1620.58 1517.37 1618.76 1520.93 Q1616.95 1524.47 1616.95 1531.6 Q1616.95 1538.71 1618.76 1542.27 Q1620.58 1545.82 1624.2 1545.82 Q1627.83 1545.82 1629.64 1542.27 Q1631.46 1538.71 1631.46 1531.6 Q1631.46 1524.47 1629.64 1520.93 Q1627.83 1517.37 1624.2 1517.37 M1624.2 1513.66 Q1630.01 1513.66 1633.06 1518.27 Q1636.14 1522.85 1636.14 1531.6 Q1636.14 1540.33 1633.06 1544.94 Q1630.01 1549.52 1624.2 1549.52 Q1618.39 1549.52 1615.31 1544.94 Q1612.25 1540.33 1612.25 1531.6 Q1612.25 1522.85 1615.31 1518.27 Q1618.39 1513.66 1624.2 1513.66 Z" fill="#000000" fill-rule="nonzero" fill-opacity="1" /><path clip-path="url(#clip480)" d="M2266.63 1544.91 L2274.26 1544.91 L2274.26 1518.55 L2265.95 1520.21 L2265.95 1515.95 L2274.22 1514.29 L2278.89 1514.29 L2278.89 1544.91 L2286.53 1544.91 L2286.53 1548.85 L2266.63 1548.85 L2266.63 1544.91 Z" fill="#000000" fill-rule="nonzero" fill-opacity="1" /><path clip-path="url(#clip480)" d="M2296.02 1514.29 L2314.38 1514.29 L2314.38 1518.22 L2300.31 1518.22 L2300.31 1526.7 Q2301.32 1526.35 2302.34 1526.19 Q2303.36 1526 2304.38 1526 Q2310.17 1526 2313.55 1529.17 Q2316.93 1532.34 2316.93 1537.76 Q2316.93 1543.34 2313.45 1546.44 Q2309.98 1549.52 2303.66 1549.52 Q2301.49 1549.52 2299.22 1549.15 Q2296.97 1548.78 2294.57 1548.04 L2294.57 1543.34 Q2296.65 1544.47 2298.87 1545.03 Q2301.09 1545.58 2303.57 1545.58 Q2307.57 1545.58 2309.91 1543.48 Q2312.25 1541.37 2312.25 1537.76 Q2312.25 1534.15 2309.91 1532.04 Q2307.57 1529.94 2303.57 1529.94 Q2301.69 1529.94 2299.82 1530.35 Q2297.97 1530.77 2296.02 1531.65 L2296.02 1514.29 Z" fill="#000000" fill-rule="nonzero" fill-opacity="1" /><polyline clip-path="url(#clip480)" style="stroke:#000000; stroke-linecap:round; stroke-linejoin:round; stroke-width:4; stroke-opacity:1; fill:none" points="186.274,1486.45 186.274,47.2441 "/>
<polyline clip-path="url(#clip480)" style="stroke:#000000; stroke-linecap:round; stroke-linejoin:round; stroke-width:4; stroke-opacity:1; fill:none" points="186.274,1445.72 205.172,1445.72 "/>
<polyline clip-path="url(#clip480)" style="stroke:#000000; stroke-linecap:round; stroke-linejoin:round; stroke-width:4; stroke-opacity:1; fill:none" points="186.274,1013.96 205.172,1013.96 "/>
<polyline clip-path="url(#clip480)" style="stroke:#000000; stroke-linecap:round; stroke-linejoin:round; stroke-width:4; stroke-opacity:1; fill:none" points="186.274,582.211 205.172,582.211 "/>
<polyline clip-path="url(#clip480)" style="stroke:#000000; stroke-linecap:round; stroke-linejoin:round; stroke-width:4; stroke-opacity:1; fill:none" points="186.274,150.458 205.172,150.458 "/>
<path clip-path="url(#clip480)" d="M62.9365 1431.51 Q59.3254 1431.51 57.4967 1435.08 Q55.6912 1438.62 55.6912 1445.75 Q55.6912 1452.86 57.4967 1456.42 Q59.3254 1459.96 62.9365 1459.96 Q66.5707 1459.96 68.3763 1456.42 Q70.205 1452.86 70.205 1445.75 Q70.205 1438.62 68.3763 1435.08 Q66.5707 1431.51 62.9365 1431.51 M62.9365 1427.81 Q68.7467 1427.81 71.8022 1432.42 Q74.8809 1437 74.8809 1445.75 Q74.8809 1454.48 71.8022 1459.08 Q68.7467 1463.67 62.9365 1463.67 Q57.1264 1463.67 54.0477 1459.08 Q50.9921 1454.48 50.9921 1445.75 Q50.9921 1437 54.0477 1432.42 Q57.1264 1427.81 62.9365 1427.81 Z" fill="#000000" fill-rule="nonzero" fill-opacity="1" /><path clip-path="url(#clip480)" d="M83.0984 1457.12 L87.9827 1457.12 L87.9827 1463 L83.0984 1463 L83.0984 1457.12 Z" fill="#000000" fill-rule="nonzero" fill-opacity="1" /><path clip-path="url(#clip480)" d="M108.168 1431.51 Q104.557 1431.51 102.728 1435.08 Q100.922 1438.62 100.922 1445.75 Q100.922 1452.86 102.728 1456.42 Q104.557 1459.96 108.168 1459.96 Q111.802 1459.96 113.608 1456.42 Q115.436 1452.86 115.436 1445.75 Q115.436 1438.62 113.608 1435.08 Q111.802 1431.51 108.168 1431.51 M108.168 1427.81 Q113.978 1427.81 117.033 1432.42 Q120.112 1437 120.112 1445.75 Q120.112 1454.48 117.033 1459.08 Q113.978 1463.67 108.168 1463.67 Q102.358 1463.67 99.2789 1459.08 Q96.2234 1454.48 96.2234 1445.75 Q96.2234 1437 99.2789 1432.42 Q102.358 1427.81 108.168 1427.81 Z" fill="#000000" fill-rule="nonzero" fill-opacity="1" /><path clip-path="url(#clip480)" d="M138.33 1431.51 Q134.719 1431.51 132.89 1435.08 Q131.084 1438.62 131.084 1445.75 Q131.084 1452.86 132.89 1456.42 Q134.719 1459.96 138.33 1459.96 Q141.964 1459.96 143.769 1456.42 Q145.598 1452.86 145.598 1445.75 Q145.598 1438.62 143.769 1435.08 Q141.964 1431.51 138.33 1431.51 M138.33 1427.81 Q144.14 1427.81 147.195 1432.42 Q150.274 1437 150.274 1445.75 Q150.274 1454.48 147.195 1459.08 Q144.14 1463.67 138.33 1463.67 Q132.519 1463.67 129.441 1459.08 Q126.385 1454.48 126.385 1445.75 Q126.385 1437 129.441 1432.42 Q132.519 1427.81 138.33 1427.81 Z" fill="#000000" fill-rule="nonzero" fill-opacity="1" /><path clip-path="url(#clip480)" d="M63.9319 999.762 Q60.3208 999.762 58.4921 1003.33 Q56.6865 1006.87 56.6865 1014 Q56.6865 1021.1 58.4921 1024.67 Q60.3208 1028.21 63.9319 1028.21 Q67.5661 1028.21 69.3717 1024.67 Q71.2004 1021.1 71.2004 1014 Q71.2004 1006.87 69.3717 1003.33 Q67.5661 999.762 63.9319 999.762 M63.9319 996.058 Q69.742 996.058 72.7976 1000.66 Q75.8763 1005.25 75.8763 1014 Q75.8763 1022.72 72.7976 1027.33 Q69.742 1031.91 63.9319 1031.91 Q58.1217 1031.91 55.043 1027.33 Q51.9875 1022.72 51.9875 1014 Q51.9875 1005.25 55.043 1000.66 Q58.1217 996.058 63.9319 996.058 Z" fill="#000000" fill-rule="nonzero" fill-opacity="1" /><path clip-path="url(#clip480)" d="M84.0938 1025.36 L88.978 1025.36 L88.978 1031.24 L84.0938 1031.24 L84.0938 1025.36 Z" fill="#000000" fill-rule="nonzero" fill-opacity="1" /><path clip-path="url(#clip480)" d="M109.163 999.762 Q105.552 999.762 103.723 1003.33 Q101.918 1006.87 101.918 1014 Q101.918 1021.1 103.723 1024.67 Q105.552 1028.21 109.163 1028.21 Q112.797 1028.21 114.603 1024.67 Q116.432 1021.1 116.432 1014 Q116.432 1006.87 114.603 1003.33 Q112.797 999.762 109.163 999.762 M109.163 996.058 Q114.973 996.058 118.029 1000.66 Q121.107 1005.25 121.107 1014 Q121.107 1022.72 118.029 1027.33 Q114.973 1031.91 109.163 1031.91 Q103.353 1031.91 100.274 1027.33 Q97.2187 1022.72 97.2187 1014 Q97.2187 1005.25 100.274 1000.66 Q103.353 996.058 109.163 996.058 Z" fill="#000000" fill-rule="nonzero" fill-opacity="1" /><path clip-path="url(#clip480)" d="M129.371 996.683 L147.728 996.683 L147.728 1000.62 L133.654 1000.62 L133.654 1009.09 Q134.672 1008.74 135.691 1008.58 Q136.709 1008.4 137.728 1008.4 Q143.515 1008.4 146.894 1011.57 Q150.274 1014.74 150.274 1020.16 Q150.274 1025.73 146.802 1028.84 Q143.33 1031.91 137.01 1031.91 Q134.834 1031.91 132.566 1031.54 Q130.32 1031.17 127.913 1030.43 L127.913 1025.73 Q129.996 1026.87 132.219 1027.42 Q134.441 1027.98 136.918 1027.98 Q140.922 1027.98 143.26 1025.87 Q145.598 1023.77 145.598 1020.16 Q145.598 1016.54 143.26 1014.44 Q140.922 1012.33 136.918 1012.33 Q135.043 1012.33 133.168 1012.75 Q131.316 1013.16 129.371 1014.04 L129.371 996.683 Z" fill="#000000" fill-rule="nonzero" fill-opacity="1" /><path clip-path="url(#clip480)" d="M62.9365 568.01 Q59.3254 568.01 57.4967 571.574 Q55.6912 575.116 55.6912 582.246 Q55.6912 589.352 57.4967 592.917 Q59.3254 596.458 62.9365 596.458 Q66.5707 596.458 68.3763 592.917 Q70.205 589.352 70.205 582.246 Q70.205 575.116 68.3763 571.574 Q66.5707 568.01 62.9365 568.01 M62.9365 564.306 Q68.7467 564.306 71.8022 568.912 Q74.8809 573.496 74.8809 582.246 Q74.8809 590.972 71.8022 595.579 Q68.7467 600.162 62.9365 600.162 Q57.1264 600.162 54.0477 595.579 Q50.9921 590.972 50.9921 582.246 Q50.9921 573.496 54.0477 568.912 Q57.1264 564.306 62.9365 564.306 Z" fill="#000000" fill-rule="nonzero" fill-opacity="1" /><path clip-path="url(#clip480)" d="M83.0984 593.611 L87.9827 593.611 L87.9827 599.491 L83.0984 599.491 L83.0984 593.611 Z" fill="#000000" fill-rule="nonzero" fill-opacity="1" /><path clip-path="url(#clip480)" d="M98.978 595.556 L106.617 595.556 L106.617 569.19 L98.3067 570.857 L98.3067 566.597 L106.571 564.931 L111.246 564.931 L111.246 595.556 L118.885 595.556 L118.885 599.491 L98.978 599.491 L98.978 595.556 Z" fill="#000000" fill-rule="nonzero" fill-opacity="1" /><path clip-path="url(#clip480)" d="M138.33 568.01 Q134.719 568.01 132.89 571.574 Q131.084 575.116 131.084 582.246 Q131.084 589.352 132.89 592.917 Q134.719 596.458 138.33 596.458 Q141.964 596.458 143.769 592.917 Q145.598 589.352 145.598 582.246 Q145.598 575.116 143.769 571.574 Q141.964 568.01 138.33 568.01 M138.33 564.306 Q144.14 564.306 147.195 568.912 Q150.274 573.496 150.274 582.246 Q150.274 590.972 147.195 595.579 Q144.14 600.162 138.33 600.162 Q132.519 600.162 129.441 595.579 Q126.385 590.972 126.385 582.246 Q126.385 573.496 129.441 568.912 Q132.519 564.306 138.33 564.306 Z" fill="#000000" fill-rule="nonzero" fill-opacity="1" /><path clip-path="url(#clip480)" d="M63.9319 136.257 Q60.3208 136.257 58.4921 139.822 Q56.6865 143.364 56.6865 150.493 Q56.6865 157.6 58.4921 161.164 Q60.3208 164.706 63.9319 164.706 Q67.5661 164.706 69.3717 161.164 Q71.2004 157.6 71.2004 150.493 Q71.2004 143.364 69.3717 139.822 Q67.5661 136.257 63.9319 136.257 M63.9319 132.553 Q69.742 132.553 72.7976 137.16 Q75.8763 141.743 75.8763 150.493 Q75.8763 159.22 72.7976 163.826 Q69.742 168.41 63.9319 168.41 Q58.1217 168.41 55.043 163.826 Q51.9875 159.22 51.9875 150.493 Q51.9875 141.743 55.043 137.16 Q58.1217 132.553 63.9319 132.553 Z" fill="#000000" fill-rule="nonzero" fill-opacity="1" /><path clip-path="url(#clip480)" d="M84.0938 161.859 L88.978 161.859 L88.978 167.738 L84.0938 167.738 L84.0938 161.859 Z" fill="#000000" fill-rule="nonzero" fill-opacity="1" /><path clip-path="url(#clip480)" d="M99.9733 163.803 L107.612 163.803 L107.612 137.438 L99.3021 139.104 L99.3021 134.845 L107.566 133.178 L112.242 133.178 L112.242 163.803 L119.881 163.803 L119.881 167.738 L99.9733 167.738 L99.9733 163.803 Z" fill="#000000" fill-rule="nonzero" fill-opacity="1" /><path clip-path="url(#clip480)" d="M129.371 133.178 L147.728 133.178 L147.728 137.114 L133.654 137.114 L133.654 145.586 Q134.672 145.239 135.691 145.076 Q136.709 144.891 137.728 144.891 Q143.515 144.891 146.894 148.063 Q150.274 151.234 150.274 156.65 Q150.274 162.229 146.802 165.331 Q143.33 168.41 137.01 168.41 Q134.834 168.41 132.566 168.039 Q130.32 167.669 127.913 166.928 L127.913 162.229 Q129.996 163.363 132.219 163.919 Q134.441 164.475 136.918 164.475 Q140.922 164.475 143.26 162.368 Q145.598 160.262 145.598 156.65 Q145.598 153.039 143.26 150.933 Q140.922 148.826 136.918 148.826 Q135.043 148.826 133.168 149.243 Q131.316 149.66 129.371 150.539 L129.371 133.178 Z" fill="#000000" fill-rule="nonzero" fill-opacity="1" /><polyline clip-path="url(#clip482)" style="stroke:#009af9; stroke-linecap:round; stroke-linejoin:round; stroke-width:4; stroke-opacity:1; fill:none" points="247.59,1445.72 248.952,1445.72 250.315,1445.72 251.677,1445.72 253.04,1445.72 254.402,1445.71 255.765,1445.71 257.127,1445.7 258.49,1445.68 259.853,1445.65 261.215,1445.6 262.578,1445.51 263.94,1445.38 265.303,1445.2 266.665,1444.96 268.028,1444.64 269.391,1444.23 270.753,1443.73 272.116,1443.1 273.478,1442.35 274.841,1441.46 276.203,1440.42 277.566,1439.22 278.929,1437.85 280.291,1436.29 281.654,1434.54 283.016,1432.59 284.379,1430.44 285.741,1428.07 287.104,1425.49 288.467,1422.68 289.829,1419.64 291.192,1416.37 292.554,1412.86 293.917,1409.12 295.279,1405.15 296.642,1400.93 298.005,1396.48 299.367,1391.8 300.73,1386.87 302.092,1381.72 303.455,1376.33 304.817,1370.71 306.18,1364.87 307.542,1358.8 308.905,1352.52 310.268,1346.02 311.63,1339.31 312.993,1332.4 314.355,1325.28 315.718,1317.97 317.08,1310.47 318.443,1302.79 319.806,1294.92 321.168,1286.88 322.531,1278.68 323.893,1270.31 325.256,1261.78 326.618,1253.1 327.981,1244.28 329.344,1235.32 330.706,1226.22 332.069,1217 333.431,1207.66 334.794,1198.2 336.156,1188.63 337.519,1178.96 338.882,1169.19 340.244,1159.33 341.607,1149.38 342.969,1139.35 344.332,1129.24 345.694,1119.06 347.057,1108.82 348.42,1098.52 349.782,1088.16 351.145,1077.75 352.507,1067.3 353.87,1056.8 355.232,1046.27 356.595,1035.71 357.957,1025.13 359.32,1014.52 360.683,1003.89 362.045,993.247 363.408,982.596 364.77,971.939 366.133,961.28 367.495,950.622 368.858,939.97 370.221,929.327 371.583,918.696 372.946,908.081 374.308,897.485 375.671,886.911 377.033,876.363 378.396,865.842 379.759,855.352 381.121,844.896 382.484,834.477 383.846,824.096 385.209,813.757 386.571,803.462 387.934,793.212 389.297,783.012 390.659,772.861 392.022,762.763 393.384,752.72 394.747,742.733 396.109,732.805 397.472,722.937 398.834,713.13 400.197,703.386 401.56,693.708 402.922,684.096 404.285,674.551 405.647,665.076 407.01,655.671 408.372,646.337 409.735,637.077 411.098,627.89 412.46,618.777 413.823,609.741 415.185,600.782 416.548,591.9 417.91,583.096 419.273,574.372 420.636,565.728 421.998,557.164 423.361,548.682 424.723,540.281 426.086,531.963 427.448,523.727 428.811,515.575 430.174,507.507 431.536,499.523 432.899,491.623 434.261,483.808 435.624,476.078 436.986,468.433 438.349,460.874 439.712,453.4 441.074,446.013 442.437,438.711 443.799,431.495 445.162,424.365 446.524,417.321 447.887,410.363 449.249,403.492 450.612,396.706 451.975,390.006 453.337,383.392 454.7,376.864 456.062,370.421 457.425,364.064 458.787,357.792 460.15,351.605 461.513,345.502 462.875,339.485 464.238,333.551 465.6,327.702 466.963,321.936 468.325,316.254 469.688,310.655 471.051,305.139 472.413,299.706 473.776,294.354 475.138,289.084 476.501,283.896 477.863,278.789 479.226,273.762 480.589,268.816 481.951,263.949 483.314,259.162 484.676,254.453 486.039,249.823 487.401,245.271 488.764,240.797 490.126,236.4 491.489,232.079 492.852,227.835 494.214,223.666 495.577,219.573 496.939,215.554 498.302,211.609 499.664,207.738 501.027,203.94 502.39,200.215 503.752,196.561 505.115,192.98 506.477,189.469 507.84,186.03 509.202,182.66 510.565,179.359 511.928,176.128 513.29,172.964 514.653,169.869 516.015,166.841 517.378,163.88 518.74,160.985 520.103,158.156 521.466,155.392 522.828,152.692 524.191,150.057 525.553,147.485 526.916,144.976 528.278,142.529 529.641,140.144 531.004,137.82 532.366,135.558 533.729,133.355 535.091,131.212 536.454,129.128 537.816,127.103 539.179,125.136 540.541,123.226 541.904,121.373 543.267,119.577 544.629,117.836 545.992,116.151 547.354,114.52 548.717,112.944 550.079,111.422 551.442,109.952 552.805,108.536 554.167,107.171 555.53,105.858 556.892,104.596 558.255,103.385 559.617,102.224 560.98,101.112 562.343,100.05 563.705,99.0356 565.068,98.0696 566.43,97.1511 567.793,96.2796 569.155,95.4546 570.518,94.6756 571.881,93.9421 573.243,93.2537 574.606,92.6099 575.968,92.0101 577.331,91.4539 578.693,90.9408 580.056,90.4704 581.418,90.0421 582.781,89.6555 584.144,89.3101 585.506,89.0055 586.869,88.7411 588.231,88.5167 589.594,88.3316 590.956,88.1855 592.319,88.0778 593.682,88.0083 595.044,87.9763 596.407,87.9815 597.769,88.0234 599.132,88.1017 600.494,88.2158 601.857,88.3654 603.22,88.55 604.582,88.7692 605.945,89.0226 607.307,89.3098 608.67,89.6304 610.032,89.984 611.395,90.3701 612.758,90.7884 614.12,91.2385 615.483,91.72 616.845,92.2325 618.208,92.7756 619.57,93.3489 620.933,93.952 622.296,94.5847 623.658,95.2464 625.021,95.9368 626.383,96.6557 627.746,97.4025 629.108,98.1769 630.471,98.9787 631.833,99.8073 633.196,100.663 634.559,101.544 635.921,102.451 637.284,103.384 638.646,104.342 640.009,105.325 641.371,106.333 642.734,107.365 644.097,108.42 645.459,109.499 646.822,110.602 648.184,111.727 649.547,112.875 650.909,114.045 652.272,115.237 653.635,116.451 654.997,117.686 656.36,118.942 657.722,120.22 659.085,121.517 660.447,122.835 661.81,124.172 663.173,125.53 664.535,126.906 665.898,128.302 667.26,129.716 668.623,131.149 669.985,132.6 671.348,134.069 672.711,135.556 674.073,137.06 675.436,138.582 676.798,140.12 678.161,141.675 679.523,143.246 680.886,144.834 682.248,146.437 683.611,148.056 684.974,149.691 686.336,151.34 687.699,153.005 689.061,154.684 690.424,156.378 691.786,158.086 693.149,159.807 694.512,161.543 695.874,163.292 697.237,165.055 698.599,166.83 699.962,168.619 701.324,170.42 702.687,172.234 704.05,174.06 705.412,175.898 706.775,177.747 708.137,179.609 709.5,181.481 710.862,183.365 712.225,185.261 713.588,187.166 714.95,189.083 716.313,191.01 717.675,192.947 719.038,194.894 720.4,196.852 721.763,198.818 723.125,200.795 724.488,202.781 725.851,204.776 727.213,206.779 728.576,208.792 729.938,210.814 731.301,212.843 732.663,214.881 734.026,216.928 735.389,218.982 736.751,221.044 738.114,223.114 739.476,225.191 740.839,227.276 742.201,229.367 743.564,231.466 744.927,233.572 746.289,235.684 747.652,237.803 749.014,239.928 750.377,242.06 751.739,244.198 753.102,246.342 754.465,248.491 755.827,250.647 757.19,252.808 758.552,254.974 759.915,257.146 761.277,259.323 762.64,261.505 764.003,263.692 765.365,265.884 766.728,268.08 768.09,270.281 769.453,272.486 770.815,274.696 772.178,276.91 773.54,279.128 774.903,281.35 776.266,283.575 777.628,285.805 778.991,288.038 780.353,290.274 781.716,292.514 783.078,294.757 784.441,297.003 785.804,299.253 787.166,301.505 788.529,303.76 789.891,306.018 791.254,308.278 792.616,310.542 793.979,312.807 795.342,315.075 796.704,317.345 798.067,319.617 799.429,321.891 800.792,324.167 802.154,326.446 803.517,328.725 804.88,331.007 806.242,333.29 807.605,335.575 808.967,337.861 810.33,340.148 811.692,342.437 813.055,344.726 814.417,347.017 815.78,349.309 817.143,351.602 818.505,353.896 819.868,356.19 821.23,358.485 822.593,360.781 823.955,363.077 825.318,365.373 826.681,367.671 828.043,369.968 829.406,372.265 830.768,374.563 832.131,376.861 833.493,379.159 834.856,381.457 836.219,383.755 837.581,386.052 838.944,388.349 840.306,390.646 841.669,392.943 843.031,395.239 844.394,397.535 845.757,399.83 847.119,402.125 848.482,404.419 849.844,406.712 851.207,409.004 852.569,411.296 853.932,413.586 855.295,415.876 856.657,418.165 858.02,420.452 859.382,422.739 860.745,425.024 862.107,427.308 863.47,429.591 864.832,431.872 866.195,434.152 867.558,436.431 868.92,438.708 870.283,440.983 871.645,443.257 873.008,445.53 874.37,447.8 875.733,450.069 877.096,452.337 878.458,454.602 879.821,456.866 881.183,459.127 882.546,461.387 883.908,463.645 885.271,465.901 886.634,468.155 887.996,470.406 889.359,472.656 890.721,474.903 892.084,477.148 893.446,479.391 894.809,481.632 896.172,483.87 897.534,486.106 898.897,488.339 900.259,490.571 901.622,492.799 902.984,495.025 904.347,497.249 905.71,499.47 907.072,501.689 908.435,503.904 909.797,506.118 911.16,508.328 912.522,510.536 913.885,512.741 915.247,514.943 916.61,517.143 917.973,519.339 919.335,521.533 920.698,523.724 922.06,525.912 923.423,528.097 924.785,530.279 926.148,532.458 927.511,534.634 928.873,536.807 930.236,538.977 931.598,541.144 932.961,543.308 934.323,545.468 935.686,547.626 937.049,549.78 938.411,551.931 939.774,554.079 941.136,556.224 942.499,558.365 943.861,560.503 945.224,562.638 946.587,564.769 947.949,566.897 949.312,569.022 950.674,571.143 952.037,573.261 953.399,575.375 954.762,577.486 956.124,579.594 957.487,581.698 958.85,583.798 960.212,585.896 961.575,587.989 962.937,590.079 964.3,592.166 965.662,594.248 967.025,596.328 968.388,598.403 969.75,600.476 971.113,602.544 972.475,604.609 973.838,606.67 975.2,608.727 976.563,610.781 977.926,612.831 979.288,614.878 980.651,616.92 982.013,618.959 983.376,620.995 984.738,623.026 986.101,625.054 987.464,627.078 988.826,629.098 990.189,631.114 991.551,633.127 992.914,635.136 994.276,637.141 995.639,639.142 997.002,641.139 998.364,643.132 999.727,645.122 1001.09,647.108 1002.45,649.09 1003.81,651.067 1005.18,653.042 1006.54,655.012 1007.9,656.978 1009.26,658.94 1010.63,660.899 1011.99,662.853 1013.35,664.804 1014.71,666.751 1016.08,668.693 1017.44,670.632 1018.8,672.567 1020.17,674.498 1021.53,676.425 1022.89,678.348 1024.25,680.266 1025.62,682.181 1026.98,684.092 1028.34,685.999 1029.7,687.903 1031.07,689.802 1032.43,691.697 1033.79,693.588 1035.15,695.475 1036.52,697.358 1037.88,699.237 1039.24,701.112 1040.6,702.983 1041.97,704.85 1043.33,706.713 1044.69,708.572 1046.05,710.427 1047.42,712.278 1048.78,714.124 1050.14,715.967 1051.5,717.806 1052.87,719.641 1054.23,721.472 1055.59,723.298 1056.95,725.121 1058.32,726.94 1059.68,728.754 1061.04,730.565 1062.4,732.371 1063.77,734.174 1065.13,735.972 1066.49,737.767 1067.86,739.557 1069.22,741.344 1070.58,743.126 1071.94,744.904 1073.31,746.679 1074.67,748.449 1076.03,750.215 1077.39,751.977 1078.76,753.735 1080.12,755.489 1081.48,757.239 1082.84,758.986 1084.21,760.728 1085.57,762.466 1086.93,764.2 1088.29,765.929 1089.66,767.655 1091.02,769.377 1092.38,771.095 1093.74,772.809 1095.11,774.519 1096.47,776.225 1097.83,777.927 1099.19,779.625 1100.56,781.319 1101.92,783.008 1103.28,784.694 1104.64,786.376 1106.01,788.054 1107.37,789.728 1108.73,791.398 1110.09,793.064 1111.46,794.726 1112.82,796.384 1114.18,798.038 1115.54,799.688 1116.91,801.334 1118.27,802.976 1119.63,804.615 1121,806.249 1122.36,807.879 1123.72,809.505 1125.08,811.128 1126.45,812.746 1127.81,814.361 1129.17,815.972 1130.53,817.578 1131.9,819.181 1133.26,820.78 1134.62,822.375 1135.98,823.966 1137.35,825.553 1138.71,827.137 1140.07,828.716 1141.43,830.291 1142.8,831.863 1144.16,833.431 1145.52,834.995 1146.88,836.555 1148.25,838.111 1149.61,839.663 1150.97,841.212 1152.33,842.756 1153.7,844.297 1155.06,845.834 1156.42,847.367 1157.78,848.896 1159.15,850.422 1160.51,851.943 1161.87,853.461 1163.23,854.975 1164.6,856.486 1165.96,857.992 1167.32,859.495 1168.68,860.994 1170.05,862.489 1171.41,863.98 1172.77,865.468 1174.14,866.952 1175.5,868.432 1176.86,869.908 1178.22,871.381 1179.59,872.85 1180.95,874.315 1182.31,875.776 1183.67,877.234 1185.04,878.688 1186.4,880.138 1187.76,881.585 1189.12,883.028 1190.49,884.467 1191.85,885.903 1193.21,887.335 1194.57,888.763 1195.94,890.187 1197.3,891.608 1198.66,893.026 1200.02,894.439 1201.39,895.849 1202.75,897.256 1204.11,898.659 1205.47,900.058 1206.84,901.453 1208.2,902.845 1209.56,904.234 1210.92,905.619 1212.29,907 1213.65,908.378 1215.01,909.752 1216.37,911.122 1217.74,912.489 1219.1,913.853 1220.46,915.213 1221.83,916.569 1223.19,917.922 1224.55,919.271 1225.91,920.617 1227.28,921.959 1228.64,923.298 1230,924.634 1231.36,925.966 1232.73,927.294 1234.09,928.619 1235.45,929.94 1236.81,931.258 1238.18,932.573 1239.54,933.884 1240.9,935.192 1242.26,936.496 1243.63,937.797 1244.99,939.094 1246.35,940.389 1247.71,941.679 1249.08,942.966 1250.44,944.25 1251.8,945.531 1253.16,946.808 1254.53,948.082 1255.89,949.352 1257.25,950.619 1258.61,951.883 1259.98,953.143 1261.34,954.401 1262.7,955.654 1264.06,956.905 1265.43,958.152 1266.79,959.396 1268.15,960.636 1269.51,961.874 1270.88,963.108 1272.24,964.338 1273.6,965.566 1274.97,966.79 1276.33,968.011 1277.69,969.229 1279.05,970.444 1280.42,971.655 1281.78,972.863 1283.14,974.068 1284.5,975.269 1285.87,976.468 1287.23,977.663 1288.59,978.855 1289.95,980.044 1291.32,981.23 1292.68,982.413 1294.04,983.592 1295.4,984.769 1296.77,985.942 1298.13,987.112 1299.49,988.279 1300.85,989.443 1302.22,990.603 1303.58,991.761 1304.94,992.915 1306.3,994.067 1307.67,995.215 1309.03,996.361 1310.39,997.503 1311.75,998.642 1313.12,999.778 1314.48,1000.91 1315.84,1002.04 1317.2,1003.17 1318.57,1004.29 1319.93,1005.41 1321.29,1006.53 1322.66,1007.65 1324.02,1008.76 1325.38,1009.87 1326.74,1010.97 1328.11,1012.08 1329.47,1013.18 1330.83,1014.27 1332.19,1015.37 1333.56,1016.46 1334.92,1017.55 1336.28,1018.63 1337.64,1019.72 1339.01,1020.8 1340.37,1021.87 1341.73,1022.95 1343.09,1024.02 1344.46,1025.08 1345.82,1026.15 1347.18,1027.21 1348.54,1028.27 1349.91,1029.33 1351.27,1030.38 1352.63,1031.43 1353.99,1032.48 1355.36,1033.53 1356.72,1034.57 1358.08,1035.61 1359.44,1036.64 1360.81,1037.68 1362.17,1038.71 1363.53,1039.74 1364.89,1040.76 1366.26,1041.79 1367.62,1042.81 1368.98,1043.82 1370.34,1044.84 1371.71,1045.85 1373.07,1046.86 1374.43,1047.87 1375.8,1048.87 1377.16,1049.87 1378.52,1050.87 1379.88,1051.86 1381.25,1052.86 1382.61,1053.85 1383.97,1054.83 1385.33,1055.82 1386.7,1056.8 1388.06,1057.78 1389.42,1058.76 1390.78,1059.73 1392.15,1060.7 1393.51,1061.67 1394.87,1062.64 1396.23,1063.6 1397.6,1064.56 1398.96,1065.52 1400.32,1066.48 1401.68,1067.43 1403.05,1068.38 1404.41,1069.33 1405.77,1070.28 1407.13,1071.22 1408.5,1072.16 1409.86,1073.1 1411.22,1074.03 1412.58,1074.97 1413.95,1075.9 1415.31,1076.82 1416.67,1077.75 1418.03,1078.67 1419.4,1079.59 1420.76,1080.51 1422.12,1081.43 1423.49,1082.34 1424.85,1083.25 1426.21,1084.16 1427.57,1085.06 1428.94,1085.96 1430.3,1086.86 1431.66,1087.76 1433.02,1088.66 1434.39,1089.55 1435.75,1090.44 1437.11,1091.33 1438.47,1092.22 1439.84,1093.1 1441.2,1093.98 1442.56,1094.86 1443.92,1095.74 1445.29,1096.61 1446.65,1097.48 1448.01,1098.35 1449.37,1099.22 1450.74,1100.08 1452.1,1100.94 1453.46,1101.8 1454.82,1102.66 1456.19,1103.52 1457.55,1104.37 1458.91,1105.22 1460.27,1106.07 1461.64,1106.91 1463,1107.76 1464.36,1108.6 1465.72,1109.44 1467.09,1110.28 1468.45,1111.11 1469.81,1111.94 1471.17,1112.77 1472.54,1113.6 1473.9,1114.43 1475.26,1115.25 1476.63,1116.07 1477.99,1116.89 1479.35,1117.7 1480.71,1118.52 1482.08,1119.33 1483.44,1120.14 1484.8,1120.95 1486.16,1121.75 1487.53,1122.56 1488.89,1123.36 1490.25,1124.16 1491.61,1124.96 1492.98,1125.75 1494.34,1126.54 1495.7,1127.33 1497.06,1128.12 1498.43,1128.91 1499.79,1129.69 1501.15,1130.47 1502.51,1131.25 1503.88,1132.03 1505.24,1132.81 1506.6,1133.58 1507.96,1134.35 1509.33,1135.12 1510.69,1135.89 1512.05,1136.65 1513.41,1137.41 1514.78,1138.18 1516.14,1138.93 1517.5,1139.69 1518.86,1140.45 1520.23,1141.2 1521.59,1141.95 1522.95,1142.7 1524.32,1143.44 1525.68,1144.19 1527.04,1144.93 1528.4,1145.67 1529.77,1146.41 1531.13,1147.15 1532.49,1147.88 1533.85,1148.61 1535.22,1149.34 1536.58,1150.07 1537.94,1150.8 1539.3,1151.52 1540.67,1152.25 1542.03,1152.97 1543.39,1153.69 1544.75,1154.4 1546.12,1155.12 1547.48,1155.83 1548.84,1156.54 1550.2,1157.25 1551.57,1157.96 1552.93,1158.66 1554.29,1159.37 1555.65,1160.07 1557.02,1160.77 1558.38,1161.47 1559.74,1162.16 1561.1,1162.86 1562.47,1163.55 1563.83,1164.24 1565.19,1164.93 1566.55,1165.61 1567.92,1166.3 1569.28,1166.98 1570.64,1167.66 1572,1168.34 1573.37,1169.02 1574.73,1169.69 1576.09,1170.37 1577.46,1171.04 1578.82,1171.71 1580.18,1172.38 1581.54,1173.04 1582.91,1173.71 1584.27,1174.37 1585.63,1175.03 1586.99,1175.69 1588.36,1176.35 1589.72,1177 1591.08,1177.66 1592.44,1178.31 1593.81,1178.96 1595.17,1179.61 1596.53,1180.25 1597.89,1180.9 1599.26,1181.54 1600.62,1182.18 1601.98,1182.82 1603.34,1183.46 1604.71,1184.1 1606.07,1184.73 1607.43,1185.37 1608.79,1186 1610.16,1186.63 1611.52,1187.25 1612.88,1187.88 1614.24,1188.51 1615.61,1189.13 1616.97,1189.75 1618.33,1190.37 1619.69,1190.99 1621.06,1191.6 1622.42,1192.22 1623.78,1192.83 1625.15,1193.44 1626.51,1194.05 1627.87,1194.66 1629.23,1195.27 1630.6,1195.87 1631.96,1196.47 1633.32,1197.07 1634.68,1197.67 1636.05,1198.27 1637.41,1198.87 1638.77,1199.46 1640.13,1200.06 1641.5,1200.65 1642.86,1201.24 1644.22,1201.83 1645.58,1202.42 1646.95,1203 1648.31,1203.59 1649.67,1204.17 1651.03,1204.75 1652.4,1205.33 1653.76,1205.91 1655.12,1206.48 1656.48,1207.06 1657.85,1207.63 1659.21,1208.2 1660.57,1208.77 1661.93,1209.34 1663.3,1209.91 1664.66,1210.47 1666.02,1211.04 1667.38,1211.6 1668.75,1212.16 1670.11,1212.72 1671.47,1213.28 1672.83,1213.83 1674.2,1214.39 1675.56,1214.94 1676.92,1215.49 1678.29,1216.04 1679.65,1216.59 1681.01,1217.14 1682.37,1217.69 1683.74,1218.23 1685.1,1218.77 1686.46,1219.32 1687.82,1219.86 1689.19,1220.4 1690.55,1220.93 1691.91,1221.47 1693.27,1222 1694.64,1222.54 1696,1223.07 1697.36,1223.6 1698.72,1224.13 1700.09,1224.66 1701.45,1225.18 1702.81,1225.71 1704.17,1226.23 1705.54,1226.75 1706.9,1227.27 1708.26,1227.79 1709.62,1228.31 1710.99,1228.83 1712.35,1229.34 1713.71,1229.85 1715.07,1230.37 1716.44,1230.88 1717.8,1231.39 1719.16,1231.9 1720.52,1232.4 1721.89,1232.91 1723.25,1233.41 1724.61,1233.91 1725.97,1234.42 1727.34,1234.92 1728.7,1235.42 1730.06,1235.91 1731.43,1236.41 1732.79,1236.9 1734.15,1237.4 1735.51,1237.89 1736.88,1238.38 1738.24,1238.87 1739.6,1239.36 1740.96,1239.85 1742.33,1240.33 1743.69,1240.82 1745.05,1241.3 1746.41,1241.78 1747.78,1242.26 1749.14,1242.74 1750.5,1243.22 1751.86,1243.7 1753.23,1244.17 1754.59,1244.65 1755.95,1245.12 1757.31,1245.59 1758.68,1246.06 1760.04,1246.53 1761.4,1247 1762.76,1247.47 1764.13,1247.93 1765.49,1248.4 1766.85,1248.86 1768.21,1249.32 1769.58,1249.78 1770.94,1250.24 1772.3,1250.7 1773.66,1251.16 1775.03,1251.61 1776.39,1252.07 1777.75,1252.52 1779.12,1252.97 1780.48,1253.43 1781.84,1253.88 1783.2,1254.32 1784.57,1254.77 1785.93,1255.22 1787.29,1255.66 1788.65,1256.11 1790.02,1256.55 1791.38,1256.99 1792.74,1257.43 1794.1,1257.87 1795.47,1258.31 1796.83,1258.75 1798.19,1259.18 1799.55,1259.62 1800.92,1260.05 1802.28,1260.49 1803.64,1260.92 1805,1261.35 1806.37,1261.78 1807.73,1262.21 1809.09,1262.63 1810.45,1263.06 1811.82,1263.48 1813.18,1263.91 1814.54,1264.33 1815.9,1264.75 1817.27,1265.17 1818.63,1265.59 1819.99,1266.01 1821.35,1266.42 1822.72,1266.84 1824.08,1267.26 1825.44,1267.67 1826.8,1268.08 1828.17,1268.49 1829.53,1268.9 1830.89,1269.31 1832.26,1269.72 1833.62,1270.13 1834.98,1270.54 1836.34,1270.94 1837.71,1271.35 1839.07,1271.75 1840.43,1272.15 1841.79,1272.55 1843.16,1272.95 1844.52,1273.35 1845.88,1273.75 1847.24,1274.15 1848.61,1274.54 1849.97,1274.94 1851.33,1275.33 1852.69,1275.72 1854.06,1276.11 1855.42,1276.5 1856.78,1276.89 1858.14,1277.28 1859.51,1277.67 1860.87,1278.06 1862.23,1278.44 1863.59,1278.83 1864.96,1279.21 1866.32,1279.59 1867.68,1279.98 1869.04,1280.36 1870.41,1280.74 1871.77,1281.11 1873.13,1281.49 1874.49,1281.87 1875.86,1282.25 1877.22,1282.62 1878.58,1282.99 1879.95,1283.37 1881.31,1283.74 1882.67,1284.11 1884.03,1284.48 1885.4,1284.85 1886.76,1285.22 1888.12,1285.58 1889.48,1285.95 1890.85,1286.32 1892.21,1286.68 1893.57,1287.04 1894.93,1287.41 1896.3,1287.77 1897.66,1288.13 1899.02,1288.49 1900.38,1288.85 1901.75,1289.2 1903.11,1289.56 1904.47,1289.92 1905.83,1290.27 1907.2,1290.63 1908.56,1290.98 1909.92,1291.33 1911.28,1291.68 1912.65,1292.03 1914.01,1292.38 1915.37,1292.73 1916.73,1293.08 1918.1,1293.43 1919.46,1293.77 1920.82,1294.12 1922.18,1294.46 1923.55,1294.8 1924.91,1295.15 1926.27,1295.49 1927.63,1295.83 1929,1296.17 1930.36,1296.51 1931.72,1296.85 1933.09,1297.18 1934.45,1297.52 1935.81,1297.86 1937.17,1298.19 1938.54,1298.52 1939.9,1298.86 1941.26,1299.19 1942.62,1299.52 1943.99,1299.85 1945.35,1300.18 1946.71,1300.51 1948.07,1300.84 1949.44,1301.16 1950.8,1301.49 1952.16,1301.81 1953.52,1302.14 1954.89,1302.46 1956.25,1302.79 1957.61,1303.11 1958.97,1303.43 1960.34,1303.75 1961.7,1304.07 1963.06,1304.39 1964.42,1304.71 1965.79,1305.02 1967.15,1305.34 1968.51,1305.66 1969.87,1305.97 1971.24,1306.28 1972.6,1306.6 1973.96,1306.91 1975.32,1307.22 1976.69,1307.53 1978.05,1307.84 1979.41,1308.15 1980.78,1308.46 1982.14,1308.77 1983.5,1309.07 1984.86,1309.38 1986.23,1309.69 1987.59,1309.99 1988.95,1310.29 1990.31,1310.6 1991.68,1310.9 1993.04,1311.2 1994.4,1311.5 1995.76,1311.8 1997.13,1312.1 1998.49,1312.4 1999.85,1312.7 2001.21,1312.99 2002.58,1313.29 2003.94,1313.58 2005.3,1313.88 2006.66,1314.17 2008.03,1314.47 2009.39,1314.76 2010.75,1315.05 2012.11,1315.34 2013.48,1315.63 2014.84,1315.92 2016.2,1316.21 2017.56,1316.5 2018.93,1316.79 2020.29,1317.07 2021.65,1317.36 2023.01,1317.64 2024.38,1317.93 2025.74,1318.21 2027.1,1318.49 2028.46,1318.78 2029.83,1319.06 2031.19,1319.34 2032.55,1319.62 2033.92,1319.9 2035.28,1320.18 2036.64,1320.45 2038,1320.73 2039.37,1321.01 2040.73,1321.28 2042.09,1321.56 2043.45,1321.83 2044.82,1322.11 2046.18,1322.38 2047.54,1322.65 2048.9,1322.93 2050.27,1323.2 2051.63,1323.47 2052.99,1323.74 2054.35,1324.01 2055.72,1324.28 2057.08,1324.54 2058.44,1324.81 2059.8,1325.08 2061.17,1325.34 2062.53,1325.61 2063.89,1325.87 2065.25,1326.14 2066.62,1326.4 2067.98,1326.66 2069.34,1326.92 2070.7,1327.18 2072.07,1327.44 2073.43,1327.7 2074.79,1327.96 2076.15,1328.22 2077.52,1328.48 2078.88,1328.74 2080.24,1328.99 2081.61,1329.25 2082.97,1329.51 2084.33,1329.76 2085.69,1330.01 2087.06,1330.27 2088.42,1330.52 2089.78,1330.77 2091.14,1331.02 2092.51,1331.28 2093.87,1331.53 2095.23,1331.78 2096.59,1332.02 2097.96,1332.27 2099.32,1332.52 2100.68,1332.77 2102.04,1333.02 2103.41,1333.26 2104.77,1333.51 2106.13,1333.75 2107.49,1334 2108.86,1334.24 2110.22,1334.48 2111.58,1334.72 2112.94,1334.97 2114.31,1335.21 2115.67,1335.45 2117.03,1335.69 2118.39,1335.93 2119.76,1336.17 2121.12,1336.4 2122.48,1336.64 2123.84,1336.88 2125.21,1337.12 2126.57,1337.35 2127.93,1337.59 2129.29,1337.82 2130.66,1338.06 2132.02,1338.29 2133.38,1338.52 2134.75,1338.75 2136.11,1338.99 2137.47,1339.22 2138.83,1339.45 2140.2,1339.68 2141.56,1339.91 2142.92,1340.14 2144.28,1340.37 2145.65,1340.59 2147.01,1340.82 2148.37,1341.05 2149.73,1341.27 2151.1,1341.5 2152.46,1341.72 2153.82,1341.95 2155.18,1342.17 2156.55,1342.4 2157.91,1342.62 2159.27,1342.84 2160.63,1343.06 2162,1343.29 2163.36,1343.51 2164.72,1343.73 2166.08,1343.95 2167.45,1344.16 2168.81,1344.38 2170.17,1344.6 2171.53,1344.82 2172.9,1345.04 2174.26,1345.25 2175.62,1345.47 2176.98,1345.68 2178.35,1345.9 2179.71,1346.11 2181.07,1346.33 2182.44,1346.54 2183.8,1346.75 2185.16,1346.96 2186.52,1347.18 2187.89,1347.39 2189.25,1347.6 2190.61,1347.81 2191.97,1348.02 2193.34,1348.23 2194.7,1348.44 2196.06,1348.64 2197.42,1348.85 2198.79,1349.06 2200.15,1349.27 2201.51,1349.47 2202.87,1349.68 2204.24,1349.88 2205.6,1350.09 2206.96,1350.29 2208.32,1350.5 2209.69,1350.7 2211.05,1350.9 2212.41,1351.1 2213.77,1351.3 2215.14,1351.51 2216.5,1351.71 2217.86,1351.91 2219.22,1352.11 2220.59,1352.31 2221.95,1352.5 2223.31,1352.7 2224.67,1352.9 2226.04,1353.1 2227.4,1353.3 2228.76,1353.49 2230.12,1353.69 2231.49,1353.88 2232.85,1354.08 2234.21,1354.27 2235.58,1354.47 2236.94,1354.66 2238.3,1354.85 2239.66,1355.05 2241.03,1355.24 2242.39,1355.43 2243.75,1355.62 2245.11,1355.81 2246.48,1356 2247.84,1356.19 2249.2,1356.38 2250.56,1356.57 2251.93,1356.76 2253.29,1356.95 2254.65,1357.13 2256.01,1357.32 2257.38,1357.51 2258.74,1357.69 2260.1,1357.88 2261.46,1358.06 2262.83,1358.25 2264.19,1358.43 2265.55,1358.62 2266.91,1358.8 2268.28,1358.98 2269.64,1359.17 2271,1359.35 2272.36,1359.53 2273.73,1359.71 2275.09,1359.89 2276.45,1360.07 2277.81,1360.25 2279.18,1360.43 2280.54,1360.61 2281.9,1360.79 2283.26,1360.97 2284.63,1361.15 2285.99,1361.33 2287.35,1361.5 2288.72,1361.68 2290.08,1361.86 2291.44,1362.03 "/>
<path clip-path="url(#clip480)" d="M2011.46 198.898 L2280.54 198.898 L2280.54 95.2176 L2011.46 95.2176  Z" fill="#ffffff" fill-rule="evenodd" fill-opacity="1"/>
<polyline clip-path="url(#clip480)" style="stroke:#000000; stroke-linecap:round; stroke-linejoin:round; stroke-width:4; stroke-opacity:1; fill:none" points="2011.46,198.898 2280.54,198.898 2280.54,95.2176 2011.46,95.2176 2011.46,198.898 "/>
<polyline clip-path="url(#clip480)" style="stroke:#009af9; stroke-linecap:round; stroke-linejoin:round; stroke-width:4; stroke-opacity:1; fill:none" points="2035.53,147.058 2179.97,147.058 "/>
<path clip-path="url(#clip480)" d="M2217.88 166.745 Q2216.07 171.375 2214.36 172.787 Q2212.65 174.199 2209.78 174.199 L2206.38 174.199 L2206.38 170.634 L2208.88 170.634 Q2210.63 170.634 2211.61 169.8 Q2212.58 168.967 2213.76 165.865 L2214.52 163.921 L2204.04 138.412 L2208.55 138.412 L2216.65 158.689 L2224.76 138.412 L2229.27 138.412 L2217.88 166.745 Z" fill="#000000" fill-rule="nonzero" fill-opacity="1" /><path clip-path="url(#clip480)" d="M2236.56 160.402 L2244.2 160.402 L2244.2 134.037 L2235.89 135.703 L2235.89 131.444 L2244.15 129.778 L2248.83 129.778 L2248.83 160.402 L2256.47 160.402 L2256.47 164.338 L2236.56 164.338 L2236.56 160.402 Z" fill="#000000" fill-rule="nonzero" fill-opacity="1" /></svg>
